<svg aria-hidden="true" style="width:0;height:0;position:absolute;overflow:hidden" xmlns="http://www.w3.org/2000/svg"><defs><symbol id="Problems" viewBox="0 0 32 32"><path d="M29.029 19.87 25 18.631v-1.067A4.984 4.984 0 0 0 26.5 14h.5c1.378 0 2.5-1.121 2.5-2.5 0-.813-.396-1.53-1-1.987V7.5c0-3.86-3.14-7-7-7s-7 3.14-7 7v2.013c-.604.457-1 1.174-1 1.987s.396 1.53 1 1.987V14.5c0 .827.673 1.5 1.5 1.5h.921c.259.59.627 1.119 1.079 1.564v1.067l-4.029 1.239a3.482 3.482 0 0 0-2.47 3.346v.971a5.994 5.994 0 0 0-1.5-1.557V9.369a5.979 5.979 0 0 0 2.5-4.87 5.993 5.993 0 0 0-1.379-3.82l-.15-.18H8v4.5H5v-4.5H2.029l-.15.18A5.998 5.998 0 0 0 .5 4.499 5.98 5.98 0 0 0 3 9.369V22.63A5.98 5.98 0 0 0 .5 27.5a6 6 0 0 0 1.379 3.82l.15.18H5V27h3v4.5h2.971l.15-.18c.137-.165.261-.338.379-.517v.697h20v-8.284a3.483 3.483 0 0 0-2.471-3.346zm-3.26.043-1.485 3.341-2-1.332 2.356-2.356 1.128.347zM20.929 25h1.142l.846 5.5h-2.834l.846-5.5zm1.304-1h-1.465l-.421-.631 1.152-.768 1.152.768-.42.631zM27 13h-.5v-3h.5c.827 0 1.5.673 1.5 1.5S27.827 13 27 13zM15.5 7.5c0-3.309 2.692-6 6-6s6 2.691 6 6v1.55A2.501 2.501 0 0 0 27 9h-1a5.495 5.495 0 0 1-3.914-1.621l-.586-.586-.586.586A5.498 5.498 0 0 1 17 9h-1c-.171 0-.338.018-.5.05V7.5zM16 10h.5v3H16c-.827 0-1.5-.673-1.5-1.5S15.173 10 16 10zm0 5a.5.5 0 0 1-.5-.5v-.55c.162.033.329.05.5.05h.5c0 .342.035.677.101 1H16zm3.092 1c.207.581.757 1 1.408 1h2c.827 0 1.5-.673 1.5-1.5s-.673-1.5-1.5-1.5h-2c-.651 0-1.201.419-1.408 1h-1.46a3.973 3.973 0 0 1-.131-1V9.982a6.485 6.485 0 0 0 4-1.777 6.48 6.48 0 0 0 4 1.777V14c0 2.206-1.794 4-4 4a3.998 3.998 0 0 1-3.459-2h1.051zm.908-.5a.5.5 0 0 1 .5-.5h2a.5.5 0 0 1 0 1h-2a.5.5 0 0 1-.5-.5zm1.5 3.5c.911 0 1.764-.249 2.5-.677v.47l-2.5 2.5-2.5-2.5v-.47a4.968 4.968 0 0 0 2.5.677zm-3.14.567 2.356 2.356-2 1.332-1.485-3.341 1.128-.347zM10.495 30.5H9V27a1 1 0 0 0-1-1H5c-.551 0-1 .448-1 1v3.5H2.505a4.985 4.985 0 0 1 1.268-7.188L4 23.164V8.835l-.227-.148a4.991 4.991 0 0 1-1.268-7.188H4v3.5c0 .551.449 1 1 1h3c.552 0 1-.449 1-1v-3.5h1.495a4.986 4.986 0 0 1-1.269 7.188L9 8.835v14.329l.226.148a4.985 4.985 0 0 1 1.269 7.188zm2.005-7.284c0-1.105.71-2.065 1.764-2.389l2.004-.616 2.016 4.535 1.231-.821.461.692-.905 5.884H16.5v-6h-1v6h-3v-7.284zm18 7.284h-3v-6h-1v6h-2.571l-.905-5.884.461-.692 1.231.821 2.016-4.535 2.003.616a2.488 2.488 0 0 1 1.765 2.389V30.5z"/><path d="M19.5 11a.5.5 0 1 1-1 0 .5.5 0 0 1 1 0zM24.5 11a.5.5 0 1 1-1 0 .5.5 0 0 1 1 0zM7 14.5h1v1H7v-1zM6.5 9C5.673 9 5 9.673 5 10.5v3h1v-3a.5.5 0 0 1 1 0v3h1v-3C8 9.673 7.327 9 6.5 9zM5 14.5h1v1H5v-1zM5 16.5h1v1H5v-1zM7 21.5a.5.5 0 0 1-1 0v-3H5v3c0 .827.673 1.5 1.5 1.5S8 22.327 8 21.5v-3H7v3zM7 16.5h1v1H7v-1z"/></symbol><symbol id="Games" viewBox="0 0 32 32"><path d="M24.94 11.173a1.28 1.28 0 1 1-2.13-1.421 1.28 1.28 0 0 1 2.13 1.421zm2.926 2.878a1.28 1.28 0 1 1-2.13-1.421 1.28 1.28 0 0 1 2.13 1.421zm-5.916 0a1.28 1.28 0 1 1-2.13-1.421 1.28 1.28 0 0 1 2.13 1.421zm2.99 2.974a1.28 1.28 0 1 1-2.13-1.421 1.28 1.28 0 0 1 2.13 1.421zm-13.684-3.637a3 3 0 1 0-6 0 3 3 0 0 0 6 0zm1.28 0a4.28 4.28 0 1 1-8.56 0 4.28 4.28 0 0 1 8.56 0z"/><path d="M30.72 22.735a3.527 3.527 0 0 1-6.547 1.8.64.64 0 0 0-1.096.662 4.806 4.806 0 0 0 8.922-2.483l-.039-.61-1.27-8.79a10.313 10.313 0 0 0-10.209-8.835h-5.877a.64.64 0 0 0 0 1.28h5.877c4.491 0 8.3 3.296 8.942 7.739l1.261 8.716.035.52z"/><path d="M15.997 21.491a8.607 8.607 0 0 1 7.033 3.635.64.64 0 1 0 1.043-.741 9.887 9.887 0 0 0-8.077-4.174.64.64 0 0 0 0 1.28zm-14.682.724 1.261-8.716a9.035 9.035 0 0 1 8.942-7.739h5.877a.64.64 0 0 0 0-1.28h-5.877a10.313 10.313 0 0 0-10.209 8.835L.044 22.056l-.043.616C0 25.368 2.152 27.52 4.806 27.52a4.804 4.804 0 0 0 4.116-2.322.64.64 0 1 0-1.096-.662 3.525 3.525 0 0 1-6.547-1.8l.035-.52z"/><path d="M16.003 20.211a9.887 9.887 0 0 0-8.077 4.174.64.64 0 1 0 1.043.741 8.607 8.607 0 0 1 7.033-3.635.64.64 0 0 0 0-1.28z"/></symbol><symbol id="Computers" viewBox="0 0 32 32"><path d="M.008.158v21.277h12.567v1.873H8.53v1.169h15.345v-1.169H19.83v-1.873h12.171V.158H.009zm30.823 1.17v16.557H1.177V1.328h29.654zM18.66 23.309h-4.916v-1.873h4.916v1.873zM1.177 20.266v-1.212h29.654v1.212H1.177zM1.82 26.346 0 31.374h26.454l-1.82-5.028H1.819zm-.153 3.859.973-2.689h21.174l.973 2.689H1.666zM31.159 27.177a2.198 2.198 0 0 0-2.647-1.536 2.179 2.179 0 0 0-1.601 2.608l.426 1.884a2.18 2.18 0 0 0 2.673 1.642l.093-.024c.578-.146 1.06-.51 1.359-1.025s.375-1.115.215-1.689l-.519-1.861zm-.708 2.962c-.139.24-.365.41-.634.478l-.093.024a1.03 1.03 0 0 1-1.247-.765l-.426-1.884a1.016 1.016 0 0 1 .998-1.247c.456 0 .861.307.983.748l.519 1.861c.075.268.039.547-.1.788z"/><path d="m16.331 11.477 2.047 2.047.827-.827-2.047-2.047 1.444-1.444-6.498-2.784 2.784 6.498 1.443-1.444zm.222-1.876-1.271 1.271-.953-2.224 2.224.953z"/></symbol><symbol id="Learning" viewBox="0 0 32 32"><path d="M18.05.029C11.144-.396 5.33 3.948 5.461 11.026l-.005.641-3 5.298a1.02 1.02 0 0 0 .692 1.506l1.854.512.582 5.619a1.938 1.938 0 0 0 2.151 1.87l1.481.118a1.023 1.023 0 0 1 1.134 1.015V32h12.526v-2.975c0-.854.294-2.807.855-3.7 2.03-3.247 5.336-4.974 5.894-11.634S26.208.532 18.05.029zm8.635 12.383h-1.256a.555.555 0 0 1-.554-.554v-.774a.515.515 0 0 0-1.028 0v.774c0 .874.709 1.582 1.583 1.583h1.078c-.591 2.437-2.217 3.355-3.848 2.434-1.063-.601-.972-1.498-1.468-2.243v-2.719a.515.515 0 0 0-1.028 0v1.913c-.738-.316-1.913-.519-3.876-.519a75.46 75.46 0 0 1-1.479-.013v-2.066a.514.514 0 0 0-1.028 0v2.037c-4.158-.162-4.77-.83-5.097-2.511a6.145 6.145 0 0 1-.031-.298h2.183a1.874 1.874 0 0 0 1.874-1.874v-.809a.514.514 0 1 0-1.028 0v.809a.848.848 0 0 1-.846.846H8.651c.126-1.43.801-2.6 1.852-3.669a8.115 8.115 0 0 1 2.915-1.883V4.45c.003.441.158.89.455 1.273.149.19.339.361.57.486.23.126.504.201.797.201h1.652a.514.514 0 0 0 0-1.028H15.24a.636.636 0 0 1-.308-.077.908.908 0 0 1-.352-.37 1.058 1.058 0 0 1-.133-.484V2.552a11.249 11.249 0 0 1 3.446-.314c2.157.133 4.024.809 5.486 1.971V8.73c0 .284.231.515.514.515s.514-.231.514-.515V5.179l.083.09c1.473 1.705 2.267 4.057 2.246 6.551-.01.206-.027.402-.047.593z"/><path d="M20.161 5.386a.514.514 0 0 0-.514.514v1.661a.653.653 0 0 1-.651.652h-1.833a.513.513 0 1 0 0 1.028h1.833a1.681 1.681 0 0 0 1.68-1.681V5.899a.514.514 0 0 0-.514-.514z"/></symbol><symbol id="Life" viewBox="0 0 32 32"><path d="M21.334 6.728a5.45 5.45 0 0 0-10.899 0 5.449 5.449 0 0 0 5.45 5.448 5.448 5.448 0 0 0 5.449-5.448zm1.28 0a6.73 6.73 0 0 1-13.459 0A6.729 6.729 0 0 1 15.885 0a6.729 6.729 0 0 1 6.729 6.728z"/><path d="M22.81 30.72c.527 0 .96-.433.96-.96V19.216c0-3.167-2.593-5.76-5.76-5.76h-4.25c-3.167 0-5.76 2.593-5.76 5.76V29.76c0 .527.433.96.96.96h13.85zm0 1.28H8.96a2.245 2.245 0 0 1-2.24-2.24V19.216c0-3.873 3.167-7.04 7.04-7.04h4.25c3.873 0 7.04 3.167 7.04 7.04V29.76A2.245 2.245 0 0 1 22.81 32z"/><path d="M21.812 16.832a2.81 2.81 0 0 1 0 3.996l-2.724 2.702c-.465.46-1.215.46-1.679 0l-2.724-2.702a2.811 2.811 0 0 1 0-3.997 2.857 2.857 0 0 1 3.564-.365 2.856 2.856 0 0 1 3.564.364zm-.901 3.087a1.531 1.531 0 0 0 0-2.179 1.574 1.574 0 0 0-2.211 0l-.451.447-.451-.447a1.575 1.575 0 0 0-2.212 0 1.531 1.531 0 0 0 0 2.179l2.662 2.641 2.662-2.641z"/></symbol><symbol id="Books" viewBox="0 0 32 32"><path d="M30.437 28.155h-.891v-2.982h.891a.557.557 0 0 0 .557-.557v-2.731a.556.556 0 0 0-.432-.542c.19-.326.299-.704.299-1.107v-4.062a2.21 2.21 0 0 0-2.207-2.206h-2.552a.557.557 0 1 0 0 1.114h2.552c.602 0 1.093.49 1.093 1.092v4.062c0 .6-.486 1.088-1.085 1.092H17.425c.184-.322.29-.695.29-1.092v-4.062c0-.397-.106-.77-.291-1.092h6.821a.557.557 0 1 0 0-1.114h-3.684a5.828 5.828 0 0 0 1.924-4.309c0-1.933-.948-3.748-2.358-4.514-.932-.506-1.985-.528-3.027-.076a6.322 6.322 0 0 0-.277-.885h.477a2.69 2.69 0 0 0 2.687-2.687v-.94A.557.557 0 0 0 19.43 0h-.941a2.69 2.69 0 0 0-2.687 2.687v.091a1.625 1.625 0 0 0-.916-.275.557.557 0 1 0 0 1.114c.458 0 .801.646 1.013 1.309-.917-.296-1.829-.226-2.648.219-1.41.767-2.358 2.581-2.358 4.514 0 1.659.723 3.224 1.924 4.309H2.472a.557.557 0 0 0-.557.557v2.228c0 .308.249.557.557.557h.668v1.79h-.668a.557.557 0 0 0-.557.557v2.228c0 .308.249.557.557.557h.611a5.33 5.33 0 0 0-2.077 4.221c0 1.424.555 2.764 1.562 3.773s2.348 1.563 3.773 1.563h24.096a.557.557 0 0 0 .557-.557v-2.731a.557.557 0 0 0-.557-.557zM16.917 2.687c0-.867.705-1.572 1.572-1.572h.383v.383c0 .867-.705 1.572-1.572 1.572h-.383v-.383zM12.008 9.66c0-1.513.73-2.967 1.776-3.535.781-.425 1.681-.333 2.603.264a.559.559 0 0 0 .606 0c.922-.597 1.822-.688 2.603-.264 1.045.568 1.776 2.022 1.776 3.535a4.707 4.707 0 0 1-2.673 4.23c-.197.094-3.819.094-4.016 0a4.706 4.706 0 0 1-2.673-4.23zM3.03 21.329v-1.114h5.171a.557.557 0 1 0 0-1.114H4.255v-1.79h10.117v1.79h-4.314a.557.557 0 1 0 0 1.114h4.871a.557.557 0 0 0 .557-.557v-2.904a.557.557 0 0 0-.557-.557H3.03v-1.114h12.478c.602 0 1.093.49 1.093 1.092v4.062c0 .599-.484 1.086-1.082 1.092H3.031zm26.85 9.557H18.224a4.194 4.194 0 0 1-2.985-1.237.556.556 0 1 0-.788.788 5.4 5.4 0 0 0 .511.449H6.34c-1.127 0-2.187-.439-2.985-1.236s-1.236-1.858-1.236-2.985a4.226 4.226 0 0 1 4.199-4.221h8.647a5.33 5.33 0 0 0-1.524 6.59.558.558 0 0 0 .999-.495 4.226 4.226 0 0 1 3.769-6.094h11.67v1.616H18.223c-1.436 0-2.604 1.169-2.604 2.605s1.168 2.605 2.604 2.605h11.656v1.616zm-1.449-2.731H18.223a1.492 1.492 0 0 1 0-2.982h10.208v2.982z"/></symbol><symbol id="Plans" viewBox="0 0 32 32"><path d="M30.55 18v-4l-3.8-.4c-.3-1.25-.75-2.4-1.4-3.45l2.4-2.95-2.85-2.85-2.95 2.4A11.74 11.74 0 0 0 18.5 5.3L18 1.45h-4l-.4 3.75c-1.25.3-2.4.75-3.45 1.45L7.2 4.25 4.35 7.1l2.4 2.95c-.65 1.05-1.15 2.2-1.4 3.45l-3.9.5v4l3.8.4c.3 1.25.75 2.4 1.45 3.45l-2.4 3 2.85 2.85 3-2.4c1.05.65 2.2 1.15 3.4 1.4l.4 3.85H18l.4-3.85c1.25-.3 2.4-.75 3.4-1.4l3 2.4 2.85-2.85-2.4-3c.65-1.05 1.15-2.2 1.45-3.45l3.85-.4zm-1-3.1v2.25l-2.6.3c.05-.45.1-.95.1-1.45 0-.45-.05-.9-.1-1.35l2.6.25zM24.8 5.65l1.6 1.6-1.65 2.05c-.55-.75-1.25-1.4-1.95-2l2-1.65zm-9.9-3.2h2.25l.3 2.6c-.5-.05-1-.1-1.45-.1s-.95.05-1.4.1l.3-2.6zM5.65 7.2l1.6-1.6L9.3 7.25c-.75.6-1.4 1.25-2 2L5.65 7.2zm-3.2 9.9v-2.25l2.6-.3c0 .5-.05.95-.05 1.4 0 .5.05.95.1 1.45l-2.65-.3zm4.8 9.25-1.6-1.6L7.3 22.7c.6.75 1.25 1.4 2 2l-2.05 1.65zm9.85 3.2h-2.25l-.3-2.65c.45.05.95.1 1.4.1.5 0 .95-.05 1.4-.1l-.25 2.65zm9.25-4.75-1.6 1.6-2.05-1.65c.75-.55 1.4-1.25 2-2l1.65 2.05zm-3.3-1.75C21.25 24.85 18.75 26 16 26s-5.25-1.1-7.05-2.95C7.15 21.25 6 18.75 6 16s1.1-5.25 2.95-7.05C10.75 7.15 13.25 6 16 6s5.25 1.1 7.05 2.95c1.8 1.8 2.95 4.3 2.95 7.05s-1.1 5.25-2.95 7.05z"/><path d="M16 6.95c-4.95 0-9 4.05-9 9s4.05 9 9 9 9-4.05 9-9-4.05-9-9-9zm-3.1 16.4c-.25-.1-.5-.25-.75-.35v-4.6h.75v4.95zm2.75.6v-7.4h.75v7.4h-.75zm4.25-1c-.25.15-.5.25-.75.35v-8.6h.75v8.25zm1.75-1.3c-.25.25-.5.45-.8.7V13.7H18.1v9.95l-.75.15v-8.25H14.6v8.3l-.75-.15v-6.3H11.1v4.9c-.25-.2-.55-.45-.8-.7-1.45-1.45-2.35-3.45-2.35-5.65s.9-4.2 2.35-5.65c1.45-1.45 3.45-2.35 5.65-2.35s4.2.9 5.65 2.35a7.975 7.975 0 0 1 2.35 5.65c.05 2.25-.85 4.25-2.3 5.7z"/><path d="m10.372 15.545 8.747-5.248.514.857-8.746 5.248-.514-.857z"/></symbol><symbol id="Shopping" viewBox="0 0 32 32"><path d="M30.726 5.983a1.668 1.668 0 0 0-1.289-.611H7.729l-.74-2.541A3.247 3.247 0 0 0 4.559.586L1.905.018a.832.832 0 1 0-.348 1.627l2.653.569c.564.121 1.019.54 1.184 1.094l4.85 16.659a3.347 3.347 0 0 0-1.54 1.426 3.474 3.474 0 0 0-.426 1.602h-.002v.086h.002a3.443 3.443 0 0 0 3.445 3.363h15.598a.831.831 0 1 0 0-1.664H11.723a1.773 1.773 0 0 1-1.479-.787 1.76 1.76 0 0 1-.302-.952c.009-.423.144-.79.381-1.084a1.74 1.74 0 0 1 .457-.394c.181-.108.395-.194.646-.248l15.678-2.552a2.498 2.498 0 0 0 2.046-1.968l1.918-9.428a1.669 1.669 0 0 0-.343-1.385zM27.52 16.465a.832.832 0 0 1-.682.656L11.859 19.56 8.214 7.037h21.225l-1.918 9.428zM13.651 27.799a2.296 2.296 0 1 0-2.57 3.809 2.296 2.296 0 0 0 2.57-3.81zm-.431 2.264a.93.93 0 0 1-.853.566.926.926 0 1 1 .854-.566zM26.246 27.799a2.297 2.297 0 1 0-2.57 3.81 2.297 2.297 0 0 0 2.57-3.811zm-.431 2.264a.93.93 0 0 1-.853.566.926.926 0 1 1 .852-.566z"/><path d="M13.107 8.876a.88.88 0 1 0-1.692.494l2.283 7.816a.882.882 0 0 0 1.692-.494l-2.283-7.815zM16.962 8.861a.881.881 0 1 0-1.691.493l2.117 7.249a.881.881 0 0 0 1.692-.494L16.963 8.86zM20.817 8.847a.881.881 0 0 0-1.692.493l1.956 6.7a.881.881 0 1 0 1.692-.494l-1.956-6.7zM24.671 8.831a.882.882 0 0 0-1.692.494l1.785 6.113a.882.882 0 0 0 1.692-.494l-1.785-6.113z"/></symbol><symbol id="Money" viewBox="0 0 32 32"><path d="M31 7H1a1 1 0 0 0-1 1v16a1 1 0 0 0 1 1h30a1 1 0 0 0 1-1V8a1 1 0 0 0-1-1zm-5.91 16H6.91a6.016 6.016 0 0 0-4.874-4.905L2 18.09v-4.18a6.016 6.016 0 0 0 4.905-4.874L6.91 9h18.18a6.016 6.016 0 0 0 4.874 4.905l.036.005v4.18a6.016 6.016 0 0 0-4.905 4.874L25.09 23zM30 11.86a4.016 4.016 0 0 1-2.854-2.832L27.14 9H30zM4.86 9a4.016 4.016 0 0 1-2.832 2.854L2 11.86V9zM2 20.14a4.016 4.016 0 0 1 2.854 2.832L4.86 23H2zM27.14 23a4.016 4.016 0 0 1 2.832-2.854L30 20.14V23zM7.51.71a.993.993 0 0 0-.767-.098L6.75.61a1.002 1.002 0 0 0-.607.455l-.003.005-2 3.43a1.003 1.003 0 0 0 1.737 1.004l.003-.005 1.5-2.56 5.07 2.93a1.003 1.003 0 0 0 1.004-1.737l-.005-.003zM24.49 31.29a.99.99 0 0 0 .499.14h.001a.75.75 0 0 0 .265-.001l-.005.001c.261-.069.476-.235.607-.455l.003-.005 2-3.43a1.003 1.003 0 0 0-1.737-1.004l-.003.005-1.48 2.56-5.07-2.93a1.003 1.003 0 0 0-1.004 1.737l.005.003z"/><path d="M16 10a6 6 0 1 0 6 6 6 6 0 0 0-6-6zm0 10a4 4 0 1 1 4-4 4 4 0 0 1-4 4z"/></symbol><symbol id="Cooking" viewBox="0 0 32 32"><path d="M22.063 5.726a.505.505 0 0 0 .505-.505V.505a.505.505 0 1 0-1.01 0v4.716c0 .279.226.505.505.505zM30.484 17.516h-2.675a1.857 1.857 0 0 0-1.845-2.022h-2.162a1.181 1.181 0 0 0-1.065-.674h-3.368a1.18 1.18 0 0 0-1.179 1.179v3.338c0 .976.718 1.782 1.671 1.874.117.011.235.012.35.001v.144c0 1.021.784 1.848 1.786 1.884.509.017.989-.166 1.354-.518s.566-.826.566-1.333v-4.884h2.048c.241 0 .463.098.624.277s.238.409.214.649l-.053.534-.001.01-.66 6.595a4.87 4.87 0 0 1-4.86 4.398H10.773a4.87 4.87 0 0 1-4.86-4.398l-.714-7.139c-.024-.24.052-.47.214-.649s.383-.277.624-.277h10.637a.505.505 0 1 0 0-1.01H6.037a1.856 1.856 0 0 0-1.845 2.022H1.517c-.836 0-1.516.68-1.516 1.516v.674c0 .836.68 1.516 1.516 1.516h1.684a.505.505 0 1 0 0-1.01H1.517a.506.506 0 0 1-.505-.505v-.674c0-.279.227-.505.505-.505h2.776l.614 6.144a5.877 5.877 0 0 0 5.866 5.308h10.456a5.877 5.877 0 0 0 5.866-5.308l.614-6.144h2.776c.279 0 .505.227.505.505v.674a.506.506 0 0 1-.505.505h-1.684a.505.505 0 1 0 0 1.01h1.684c.836 0 1.516-.68 1.516-1.516v-.674c0-.836-.68-1.516-1.516-1.516zm-7.579 3.874a.837.837 0 0 1-.873.841c-.447-.016-.811-.408-.811-.874v-.823a.504.504 0 0 0-.758-.437.838.838 0 0 1-.504.11c-.425-.041-.758-.423-.758-.869V16c0-.093.076-.168.168-.168h3.368c.093 0 .168.075.168.168v5.39zM24.084 5.726a.505.505 0 0 0 .505-.505V.505a.505.505 0 1 0-1.01 0v4.716c0 .279.226.505.505.505zM28.126 30.989H3.2a.505.505 0 1 0 0 1.01h24.926a.505.505 0 1 0 0-1.01zM5.713 13.538c.064 0 .128-.003.192-.008l20.805-1.82c1.203-.105 2.096-1.169 1.99-2.372s-1.169-2.096-2.372-1.99l-6.544.572-.073-.839a1.855 1.855 0 0 0-2.007-1.684l-4.027.352a1.854 1.854 0 0 0-1.684 2.007l.073.839-6.543.572c-.583.051-1.111.326-1.486.774s-.555 1.016-.504 1.598a2.193 2.193 0 0 0 2.18 1.999zm-.901-2.947c.202-.241.487-.389.8-.417l7.043-.616h.008l1.36-.119a.504.504 0 1 0-.088-1.006l-.861.075-.073-.839c-.02-.224.049-.442.194-.615s.348-.278.572-.298l4.027-.352a.843.843 0 0 1 .912.765l.073.839-2.823.247a.504.504 0 1 0 .088 1.006l10.373-.908a1.18 1.18 0 0 1 .205 2.349l-20.805 1.82A1.178 1.178 0 0 1 4.81 10.59z"/></symbol><symbol id="Restaurants" viewBox="0 0 32 32"><path d="M15.737 7.432c-5.2 0-9.431 4.23-9.431 9.431s4.23 9.431 9.431 9.431c5.202 0 9.434-4.23 9.434-9.431s-4.232-9.431-9.434-9.431zm0 17.812c-4.622 0-8.381-3.76-8.381-8.382s3.76-8.382 8.381-8.382c4.623 0 8.385 3.76 8.385 8.382s-3.761 8.382-8.385 8.382z"/><path d="M15.737 10.533c-3.491 0-6.33 2.84-6.33 6.33s2.84 6.33 6.33 6.33c3.491 0 6.33-2.84 6.33-6.33s-2.84-6.33-6.33-6.33zm0 11.611c-2.912 0-5.281-2.369-5.281-5.281s2.369-5.281 5.281-5.281 5.281 2.369 5.281 5.281-2.369 5.281-5.281 5.281z"/><path d="M18.953 16.338a.525.525 0 0 0-.525.525 2.696 2.696 0 0 1-2.692 2.692 2.694 2.694 0 0 1-2.689-2.692.525.525 0 1 0-1.05 0 3.744 3.744 0 0 0 3.738 3.741 3.745 3.745 0 0 0 3.741-3.741.525.525 0 0 0-.525-.525zM5.771 4.197a.525.525 0 0 0-.525.525v5.246H3.672V4.722a.525.525 0 1 0-1.05 0v5.246H1.048V4.722a.525.525 0 1 0-1.05 0v8.918c0 .683.44 1.26 1.049 1.477v11.638c0 .868.706 1.574 1.574 1.574H3.67c.868 0 1.574-.706 1.574-1.574V15.118a1.571 1.571 0 0 0 1.049-1.477V4.723a.525.525 0 0 0-.525-.525zM4.197 26.754a.526.526 0 0 1-.525.525H2.623a.526.526 0 0 1-.525-.525v-.525h2.098v.525zm0-1.574H2.099v-5.246h2.098v5.246zm0-6.295H2.099v-1.049h2.098v1.049zm0-2.098H2.099v-1.574h2.098v1.574zm1.049-3.148a.526.526 0 0 1-.525.525H1.573a.526.526 0 0 1-.525-.525v-2.623h1.574v.525a.525.525 0 1 0 1.05 0v-.525h1.574v2.623zM28.328 3.672c-2.059 0-3.672 2.535-3.672 5.771 0 2 .617 3.729 1.574 4.761v12.55c0 .868.706 1.574 1.574 1.574h1.049c.868 0 1.574-.706 1.574-1.574v-12.55c.957-1.032 1.574-2.761 1.574-4.761 0-3.236-1.613-5.771-3.672-5.771zm1.049 23.082a.526.526 0 0 1-.525.525h-1.049a.526.526 0 0 1-.525-.525v-.525h2.098v.525zm0-1.574h-2.098v-5.246h2.098v5.246zm0-6.295h-2.098v-1.049h2.098v1.049zm0-2.098h-2.098v-1.808c.332.151.683.234 1.049.234s.718-.083 1.049-.234v1.808zm.127-3.148h-2.352c-.85-.792-1.447-2.394-1.447-4.197 0-2.559 1.201-4.721 2.623-4.721s2.623 2.162 2.623 4.721c0 1.803-.598 3.405-1.447 4.197z"/></symbol><symbol id="Dreams" viewBox="0 0 32 32"><path d="M18.688 3.212v5.713c0 .575.825.55.825 0V5.638h.188v3.287c0 .55.825.575.825 0V3.212l1.925-1.975c.337-.338-.137-.825-.488-.488l-1.512 1.55h-1.7L17.226.736c-.337-.338-.825.137-.488.488l1.95 1.988zm.899-2.45c.387 0 .712.325.712.713s-.325.712-.712.712c-.387 0-.712-.325-.712-.712s.325-.713.712-.713zM21.6 9.775h-3.975v.037l-6 13.113-3.088-5.075L.375 31.325h8.162l-.012.025H23.35l8.125.025-9.875-21.6zm-12.025 12.3-1.037-.863-1.037.363-.05-.725 1.087-1.825L9.713 21l-.137 1.075zm12.163-4.063-1.825-1.313-2.188 1.725-1.875-2.375 2.438-5.3h2.688l1.9 4.175-1.137 3.087z"/></symbol><symbol id="Goals" viewBox="0 0 32 32"><path d="M16 0C7.178 0 0 7.178 0 16s7.178 16 16 16 16-7.178 16-16S24.822 0 16 0zm0 29.515C8.548 29.515 2.485 23.452 2.485 16S8.548 2.485 16 2.485 29.515 8.548 29.515 16c0 7.452-6.063 13.515-13.515 13.515z"/><path d="M16 6.214c-5.396 0-9.786 4.39-9.786 9.786s4.39 9.786 9.786 9.786a9.73 9.73 0 0 0 4.99-1.371l-.685-.71a1.412 1.412 0 0 1-1.303.858 1.415 1.415 0 0 1-1.311-.878l-.22-.533a7.344 7.344 0 0 1-1.47.149C11.975 23.301 8.7 20.026 8.7 16s3.275-7.301 7.301-7.301 7.301 3.275 7.301 7.301c0 .575-.067 1.134-.193 1.671l.554.252c.524.239.85.764.83 1.339a1.416 1.416 0 0 1-.903 1.275l.675.7a9.732 9.732 0 0 0 1.522-5.236c0-5.396-4.39-9.786-9.786-9.786z"/><path d="M16.065 14.606c.203 0 .401.043.586.127l2.291 1.042a2.951 2.951 0 1 0-3.21 3.163l-.979-2.372a1.41 1.41 0 0 1 .327-1.562c.265-.256.615-.398.985-.398z"/><path d="m21.626 20.073 1.642-.621c.096-.037.16-.127.164-.229s-.055-.197-.148-.239l-7.01-3.189a.253.253 0 0 0-.339.328l2.937 7.119a.253.253 0 0 0 .411.086.274.274 0 0 0 .058-.084l.679-1.619 2.522 2.614a.253.253 0 0 0 .359.006l1.242-1.199a.253.253 0 0 0 .006-.359l-2.522-2.613z"/></symbol><symbol id="Love" viewBox="0 0 32 32"><path d="M22 4a7.972 7.972 0 0 0-6 2.721A7.972 7.972 0 0 0 10 4a8 8 0 0 0-8 8c0 6.11 6.452 11.298 10.596 14a41.965 41.965 0 0 0 2.929 1.75.997.997 0 0 0 .951 0A42.246 42.246 0 0 0 19.404 26C23.547 23.299 30 18.11 30 12a8 8 0 0 0-8-8zm-6 22.869C13.664 25.601 3 19.406 3 12c0-3.86 3.14-7 7-7 2.003 0 3.917.868 5.25 2.382l.75.852.75-.852A7.002 7.002 0 0 1 22 5c3.86 0 7 3.14 7 7 0 7.406-10.664 13.601-13 14.869zM8 8a2 2 0 1 0-.001 3.999A2 2 0 0 0 8 8zm0 3c-.551 0-1-.449-1-1s.449-1 1-1 1 .449 1 1-.449 1-1 1z"/></symbol><symbol id="Crime" viewBox="0 0 32 32"><path d="m29.939 11.52.346-.703h-5.903a5389.934 5389.934 0 0 0-.712-3.802v-.001c-.19-1.012-.389-2.061-.555-2.938-.083-.438-.158-.832-.221-1.156s-.112-.578-.145-.736a2.366 2.366 0 0 0-.398-.91c-.285-.404-.682-.72-1.135-.938S20.25 0 19.72 0a3.466 3.466 0 0 0-1.928.584 3.154 3.154 0 0 1-1.043.461 3.367 3.367 0 0 1-.749.08c-.092 0-.17.004-.245.004-.081 0-.157-.004-.243-.015a2.106 2.106 0 0 1-.498-.132 5.23 5.23 0 0 1-.826-.412 3.778 3.778 0 0 0-1.93-.533c-.352 0-.694.051-1.018.146a3.09 3.09 0 0 0-1.277.726c-.176.169-.328.36-.449.575s-.212.448-.263.699h.001c-.033.158-.082.412-.145.736-.188.973-.491 2.576-.777 4.095l-.674 3.6-.038.202H1.715l.346.703c.018.035.188.372.615.857.639.729 1.856 1.789 3.969 2.661.604.248 1.281.481 2.037.688v.26L11 18.665s2.682.508 2.899.436S16 17.144 16 17.144s1.885 1.885 2.102 1.957S21 18.665 21 18.665l2.318-2.68v-.26c2.524-.689 4.155-1.68 5.164-2.529 1.061-.893 1.433-1.627 1.457-1.678zM9.291 7.195c.189-1.012.389-2.063.554-2.937l.221-1.153c.062-.322.112-.576.144-.728.039-.195.118-.372.232-.535.172-.242.428-.451.742-.598s.686-.23 1.074-.23c.473 0 .969.122 1.432.395.506.301.904.477 1.242.576a2.774 2.774 0 0 0 .823.12c.098 0 .179-.004.245-.004.111 0 .254-.003.418-.018.246-.022.543-.07.869-.176s.682-.268 1.047-.512a2.469 2.469 0 0 1 1.387-.42c.254 0 .506.039.738.11.351.106.661.288.893.513.114.111.211.234.285.365s.127.268.156.412c.031.152.08.405.143.728.186.968.49 2.571.774 4.089l.112.597H9.178l.112-.596zm15.42 7.049c-1.967.766-4.77 1.373-8.711 1.373-2.751 0-4.947-.297-6.691-.736-2.616-.658-4.217-1.637-5.161-2.431a6.947 6.947 0 0 1-.685-.657h25.075l-.106.115c-.617.648-1.754 1.57-3.721 2.336zM5.891 21.57c.364-.384.686-.677.914-.873.113-.097.204-.17.265-.219l.069-.053.016-.012.003-.002h.001l-.006-.007-.002-.003-.568-.78c-.018.014-.618.452-1.4 1.276s-1.746 2.037-2.482 3.602l-.197.418 3.063 1.652c-.465.345-1.129.862-1.832 1.485a17.777 17.777 0 0 0-1.912 1.952 9.668 9.668 0 0 0-.787 1.096 5.883 5.883 0 0 0-.451.897h1.07c.063-.129.136-.259.216-.389.346-.57.825-1.157 1.351-1.709.789-.829 1.678-1.58 2.366-2.12.345-.27.64-.488.848-.638l.242-.172.063-.043.016-.011.004-.003h.001l.668-.451L3.792 24.5a13.068 13.068 0 0 1 2.103-2.932zM30.967 31.104c-.398-.656-.92-1.287-1.479-1.875-.837-.879-1.757-1.654-2.471-2.215a22.898 22.898 0 0 0-.582-.443l3.063-1.652-.196-.418c-.737-1.564-1.701-2.776-2.483-3.602s-1.383-1.263-1.401-1.276l-.574.79c.017.013.579.427 1.302 1.195.65.691 1.432 1.67 2.068 2.895l-3.639 1.963.669.451a25.937 25.937 0 0 1 2.389 1.883 16.695 16.695 0 0 1 1.799 1.836c.267.326.506.656.703.98.078.129.15.258.215.385h1.068a5.883 5.883 0 0 0-.451-.897zM14.744 26.123h2.512v1.775h-2.512v-1.775zM15.029 28.832 14.639 32h2.722l-.39-3.168z"/></symbol><symbol id="Beauty" viewBox="0 0 32 32"><path d="M21.75 14.435c.048-.36.073-.729.073-1.095 0-4.499-3.66-8.158-8.159-8.158s-8.158 3.66-8.158 8.158 3.66 8.158 8.158 8.158a.747.747 0 0 1 0 1.494c-5.322 0-9.652-4.33-9.652-9.652s4.33-9.652 9.652-9.652c5.322 0 9.652 4.33 9.652 9.652 0 .433-.029.868-.086 1.294a.747.747 0 0 1-1.48-.198zm-6.024 15.244H14.41v-3.745a.747.747 0 0 0-.747-.747c-6.533 0-11.847-5.314-11.847-11.847S7.13 1.493 13.663 1.493c6.533 0 11.847 5.315 11.847 11.847 0 1.214-.183 2.41-.543 3.555a.747.747 0 0 0 1.424.448c.406-1.291.611-2.637.611-4.003C27.002 5.984 21.018 0 13.662 0S.322 5.984.322 13.34c0 7.105 5.584 12.931 12.594 13.32v3.019H10.1a.747.747 0 0 0 0 1.494h5.625a.747.747 0 0 0 0-1.494zm1.139-12.392a.746.746 0 0 0 .528-1.275l-6.401-6.401a.747.747 0 0 0-1.056 1.056l6.401 6.401a.744.744 0 0 0 .528.219zm-6.847-3.384a.746.746 0 0 0 0 1.056l3.521 3.521a.744.744 0 0 0 1.056 0 .746.746 0 0 0 0-1.056l-3.521-3.521a.748.748 0 0 0-1.056 0zm17.918 16.292C26.296 31.392 24.395 32 22.559 32c-1.325 0-2.616-.317-3.75-.958l-.289.211a.746.746 0 0 1-.88-1.206l.289-.211a6.834 6.834 0 0 1-.071-.4c-1.805-1.581-2.652-4.137-2.218-6.752.512-3.087 2.706-5.508 5.46-6.026a.74.74 0 0 1 .505.084c1.238.7 2.203 1.831 2.773 3.232 2.331-.702 4.796-.428 6.719.86a.75.75 0 0 1 .302.414c.913 3.174-.478 6.77-3.463 8.948zm-8.455-6.779.446-2.688a.746.746 0 1 1 1.474.245l-.098.592c.072-.055.144-.11.217-.163.47-.343.962-.638 1.468-.884-.406-.989-1.057-1.798-1.881-2.334-2.013.508-3.601 2.378-3.994 4.744-.251 1.514.043 3.035.764 4.223.212-1.315.763-2.601 1.605-3.735zm10.552-1.49c-1.669-1.002-3.806-1.098-5.784-.332a.7.7 0 0 1-.113.045 8.114 8.114 0 0 0-1.737.97 8.107 8.107 0 0 0-1.585 1.521.773.773 0 0 1-.079.102c-1.052 1.379-1.576 3.024-1.445 4.611l7.548-5.508a.746.746 0 0 1 .88 1.206l-7.548 5.508c2.112.875 4.75.498 6.884-1.059 2.395-1.748 3.567-4.554 2.978-7.063zm-14.286-9.859a.746.746 0 0 0 .528-1.275l-2.6-2.6a.746.746 0 1 0-1.056 1.056l2.6 2.6a.744.744 0 0 0 .528.219z"/></symbol><symbol id="Time" viewBox="0 0 32 32"><path d="m19.743 14.447 5.172-7.196a3.63 3.63 0 0 0 .69-2.121V2.882h1.494V-.001H4.901v2.883h1.495V5.13c0 .759.243 1.499.69 2.121l5.172 7.196c.185.258.28.554.28.854v1.398c-.001.3-.095.596-.28.854l-5.172 7.196a3.63 3.63 0 0 0-.69 2.12v2.248H4.901V32h22.198v-2.883h-1.494v-2.248c0-.758-.243-1.498-.69-2.12l-5.172-7.196a1.463 1.463 0 0 1-.28-.854v-1.398c0-.3.095-.596.28-.854zm4.42 14.382H7.837v-1.96c0-.452.143-.895.418-1.279l5.172-7.196a2.904 2.904 0 0 0 .552-1.695v-1.398c0-.607-.195-1.2-.552-1.695L8.256 6.41a2.185 2.185 0 0 1-.419-1.279V3.172h16.326v1.959a2.19 2.19 0 0 1-.419 1.279l-5.172 7.196a2.907 2.907 0 0 0-.551 1.695v1.398c0 .607.195 1.199.551 1.695l5.173 7.196c.275.384.418.827.419 1.279v1.96z"/><path d="M14.767 14.558h2.467c.105-.52.318-1.015.636-1.457l3.718-5.173H10.412l3.718 5.173c.318.442.531.938.636 1.457zM15.422 23.849l-4.114 4.114h9.383l-4.114-4.114a.818.818 0 0 0-1.156 0zM15.977 15.5a.644.644 0 1 0 0 1.289.644.644 0 0 0 0-1.289zM15.977 18.095a.644.644 0 1 0 0 1.288.644.644 0 0 0 0-1.288zM15.977 20.765a.644.644 0 1 0 0 1.288.644.644 0 0 0 0-1.288z"/></symbol><symbol id="Motivation" viewBox="0 0 32 32"><path d="m22.292 22.369-3.152-.728v-1.316a4.698 4.698 0 0 0 1.492-2.67 5.776 5.776 0 0 0 2.171-4.493v-1.983c0-.814-.581-1.493-1.351-1.647a6.297 6.297 0 0 0-6.447-3.095 5.977 5.977 0 0 0-1.098.282V2.402L16 1.206l2.093 1.196v3.434h1.047V3l.264.151.519-.908L16 .002l-3.923 2.241.519.908L12.86 3v4.21c-1.674.983-2.878 2.727-3.099 4.708a6.286 6.286 0 0 0 1.53 4.854v.053c0 1.39.609 2.638 1.57 3.5v1.316l-3.152.728a4.688 4.688 0 0 0-3.651 4.589V32h19.885v-5.042a4.688 4.688 0 0 0-3.651-4.589zm-2.414.517-1.42 2.13-1.543-.926 1.831-1.465 1.132.261zM16 23.48l-2.093-1.675v-.768a4.664 4.664 0 0 0 4.186 0v.768L16 23.48zm-4.71-10.589v2.008a5.253 5.253 0 0 1-.489-2.866c.256-2.294 2.091-4.213 4.363-4.564a5.25 5.25 0 0 1 5.492 2.79l.147.285h.32c.35 0 .634.284.634.633v1.983c0 1.08-.381 2.122-1.047 2.952l-.003-3.21-.723.299c-.012.005-1.2.482-3.983.482s-3.972-.477-3.98-.481l-.729-.312zm1.047 3.933v-2.442c.684.16 1.872.348 3.663.348s2.979-.189 3.663-.348v2.442c0 2.019-1.644 3.663-3.663 3.663s-3.663-1.644-3.663-3.663zm.917 5.801 1.831 1.465-1.543.926-1.42-2.13 1.132-.261zm.708 8.328h-3.718v-2.616H9.197v2.616H7.104v-3.996a3.645 3.645 0 0 1 2.839-3.569l1.089-.251 2.193 3.288.623-.374.565.847-.451 4.055zm3.023 0h-1.97l.48-4.318-.748-1.122L16 24.761l1.254.752-.748 1.122.48 4.318zm7.911 0h-2.093v-2.616h-1.047v2.616h-3.718l-.451-4.055.565-.847.623.374 2.193-3.288 1.089.251a3.645 3.645 0 0 1 2.839 3.569v3.996z"/><path d="M6.057 22.581h1.047v1.047H6.057v-1.047z"/><path d="M6.057 2.401v19.133h1.047V2.999l.264.151.519-.908L3.964.001.041 2.242l.519.908.264-.151V32h1.047V2.401l2.093-1.196z"/><path d="M3.441 2.696h1.047v25.118H3.441V2.696zM30.129 30.953h1.047V32h-1.047v-1.047zM24.896 21.534h1.047v1.047h-1.047v-1.047z"/><path d="m28.036 5.756-3.923 2.241.519.908.264-.151v11.732h1.047V8.156l2.093-1.196 2.093 1.196v21.75h1.047V8.754l.264.151.519-.908z"/><path d="M27.512 8.452h1.047v19.362h-1.047V8.452zM15.477 2.696h1.047v2.616h-1.047V2.696zM3.441 28.86h1.047v1.047H3.441V28.86zM3.441 30.953h1.047V32H3.441v-1.047zM27.512 28.86h1.047V32h-1.047v-3.14z"/></symbol><symbol id="Risk" viewBox="0 0 32 32"><path d="M16 12h4v4h-4v-4zM24 12h4v4h-4v-4zM24 4h4v4h-4V4zM16 4h4v4h-4V4z"/><path d="M20 32H0V12h12v2.667H2.667v14.667h14.667v-9.333h-5.333v-20h20v20h-12v12zm-5.333-14.667h14.667V2.666H14.667v14.667z"/><path d="M12 24h4v4h-4v-4zM4 16h4v4H4v-4z"/></symbol><symbol id="Movies" viewBox="0 0 32 32"><path d="m30 28-6-5v-3l6-4v12zM19 14.012A5.011 5.011 0 1 1 19 3.99a5.011 5.011 0 0 1 0 10.022zM22 26a2 2 0 0 1-2 2H4a2 2 0 0 1-2-2v-8a2 2 0 0 1 2-2h16a2 2 0 0 1 2 2v8zM2 10a4 4 0 1 1 8 0 4 4 0 0 1-8 0zm28 4-6 4a3.97 3.97 0 0 0-1.406-3.021C24.626 13.753 26 11.546 26 9a7 7 0 1 0-14 0c0 1.962.812 3.729 2.111 5h-3.668C11.4 12.937 12 11.544 12 10a6 6 0 0 0-12 0c0 1.809.816 3.41 2.082 4.511C.847 15.191 0 16.49 0 18v8a4 4 0 0 0 4 4h16a4 4 0 0 0 4-4v-1l6 5a2 2 0 0 0 2-2V16a2 2 0 0 0-2-2z"/></symbol><symbol id="Television" viewBox="0 0 32 32"><path d="M0 2.449V23.02h13.551v3.2h-2.122v.98h9.143v-.98H18.45v-3.2h5.061v4.735c0 .99.806 1.796 1.796 1.796h3.265c.99 0 1.796-.806 1.796-1.796V23.02h1.633V2.449h-32zM17.469 26.22H14.53v-3.2h2.939v3.2zm11.919 1.535c0 .45-.366.816-.816.816h-3.265a.817.817 0 0 1-.816-.816V14.792h4.898v12.963zm1.632-5.714h-.653v-8.229H23.51v8.229H.979V3.429H31.02v18.612z"/><path d="M1.959 4.408v16.653h20.735v-.98H2.939V5.387h13.649l-6.091 6.091.693.693 6.783-6.783h2.069l-6.091 6.091.693.693 6.783-6.783h7.634v7.608h.98V4.409zM25.404 20.735h.98v.98h-.98v-.98zM27.69 20.735h.98v.98h-.98v-.98zM25.404 18.776h.98v.98h-.98v-.98zM27.69 18.776h.98v.98h-.98v-.98z"/><path d="M25.404 16.816h.98v.98h-.98v-.98zM27.69 16.816h.98v.98h-.98v-.98z"/></symbol><symbol id="Music" viewBox="0 0 32 32"><path d="M25.92 28.48a2.569 2.569 0 0 0 2.56-2.56V6.08a2.569 2.569 0 0 0-2.56-2.56H6.08a2.569 2.569 0 0 0-2.56 2.56v19.84a2.569 2.569 0 0 0 2.56 2.56h19.84zm0 1.28H6.08a3.85 3.85 0 0 1-3.84-3.84V6.08a3.85 3.85 0 0 1 3.84-3.84h19.84a3.85 3.85 0 0 1 3.84 3.84v19.84a3.85 3.85 0 0 1-3.84 3.84z"/><path d="M11.4 22.653a2.08 2.08 0 1 0-4.16 0 2.08 2.08 0 0 0 4.16 0zm1.28 0a3.36 3.36 0 1 1-6.72 0 3.36 3.36 0 0 1 6.72 0z"/><path d="M12.68 22.493V9.826a.64.64 0 0 0-1.28 0v12.667a.64.64 0 0 0 1.28 0zm9.547-3.04a2.08 2.08 0 1 0-4.16 0 2.08 2.08 0 0 0 4.16 0zm1.28 0a3.36 3.36 0 1 1-6.72 0 3.36 3.36 0 0 1 6.72 0z"/><path d="M23.507 19.293V6.626a.64.64 0 0 0-1.28 0v12.667a.64.64 0 0 0 1.28 0z"/><path d="m12.221 10.44 10.827-3.2a.639.639 0 1 0-.363-1.227l-10.827 3.2a.639.639 0 1 0 .363 1.227zm0 3.826 10.827-3.2a.639.639 0 1 0-.363-1.227l-10.827 3.2a.639.639 0 1 0 .363 1.227z"/></symbol><symbol id="Sleep" viewBox="0 0 32 32"><path d="M17.011 7.41c-1.207 0-2.189.982-2.189 2.189s.982 2.19 2.189 2.19S19.2 10.807 19.2 9.6s-.982-2.189-2.189-2.189zm0 3.369c-.65 0-1.179-.529-1.179-1.179s.529-1.179 1.179-1.179S18.19 8.95 18.19 9.6s-.529 1.179-1.179 1.179zM7.856 2.223a4.533 4.533 0 0 1 3.092-1.213h2.695a4.552 4.552 0 0 1 4.456 5.457.506.506 0 0 0 .991.201 5.564 5.564 0 0 0-5.447-6.669h-2.695a5.541 5.541 0 0 0-3.779 1.482.505.505 0 1 0 .687.741z"/><path d="M13.586 3.457a.505.505 0 0 0 0-.84 3.521 3.521 0 0 0-1.965-.596c-1.95 0-3.537 1.587-3.537 3.537s1.587 3.537 3.537 3.537c.703 0 1.383-.206 1.965-.596a.505.505 0 0 0 0-.84 2.525 2.525 0 0 1 0-4.202zm-1.19 4.506a2.529 2.529 0 0 1-3.301-2.405 2.529 2.529 0 0 1 3.301-2.405c-.601.647-.944 1.502-.944 2.405s.343 1.758.944 2.405zM32 18.021v-.674c0-1.764-1.436-3.2-3.2-3.2h-4.924a3.205 3.205 0 0 0-3.16-2.695 3.2 3.2 0 0 0-2.818 4.716H1.853A1.855 1.855 0 0 0 0 18.021v4.716c0 1.022.831 1.853 1.853 1.853h18.189a1.855 1.855 0 0 0 1.853-1.853v-1.516h4.21a.505.505 0 1 0 0-1.01h-4.21v-2.189c0-.753-.451-1.402-1.098-1.692a2.19 2.19 0 0 1 1.94-1.171H28.8c1.207 0 2.189.982 2.189 2.19v.674a2.192 2.192 0 0 1-2.189 2.189h-.674a.505.505 0 1 0 0 1.01h2.021c.464 0 .842.378.842.842v.842h-6.905a.505.505 0 1 0 0 1.01h6.905v2.189a.843.843 0 0 1-.842.842h-4.042a.505.505 0 1 0 0 1.01h.168v2.189a.843.843 0 0 1-.842.842h-1.347a.843.843 0 0 1-.842-.842v-2.189h.842a.505.505 0 1 0 0-1.01H9.937a.505.505 0 1 0 0 1.01h.168v2.189a.843.843 0 0 1-.842.842H7.916a.843.843 0 0 1-.842-.842v-2.189h.842a.505.505 0 1 0 0-1.01H3.2a.843.843 0 0 1-.842-.842.505.505 0 1 0-1.01 0c0 1.022.831 1.853 1.853 1.853h2.863v2.189c0 .303.073.589.203.842H.506a.505.505 0 1 0 0 1.01h18.189a.505.505 0 1 0 0-1.01h-7.782c.13-.253.203-.539.203-.842v-2.189h11.116v2.189c0 .303.073.589.203.842h-1.718a.505.505 0 1 0 0 1.01h10.779a.505.505 0 1 0 0-1.01h-4.413c.13-.253.203-.539.203-.842v-2.189h2.863a1.855 1.855 0 0 0 1.853-1.853v-4.042c0-.735-.431-1.372-1.053-1.671a3.191 3.191 0 0 0 1.053-2.371zm-11.116 0v4.716a.843.843 0 0 1-.842.842h-4.21v-4.884a.505.505 0 1 0-1.01 0v4.884H1.854a.843.843 0 0 1-.842-.842v-4.716c0-.464.378-.842.842-.842h18.19c.464 0 .842.378.842.842zm1.853-3.874a3.2 3.2 0 0 0-2.976 2.021h-.625a2.192 2.192 0 0 1 1.579-3.705c1.033 0 1.902.72 2.131 1.684h-.11z"/><path d="M10.947 11.116h2.695a.505.505 0 1 0 0-1.01h-2.695a4.552 4.552 0 0 1-4.023-6.669.506.506 0 0 0-.894-.472 5.564 5.564 0 0 0 4.917 8.152z"/></symbol><symbol id="Sports" viewBox="0 0 32 32"><path d="M25.915 32h-3.728a.783.783 0 0 1-.783-.783v-2.983H10.597v2.983a.783.783 0 0 1-.783.783H6.086a.783.783 0 0 1-.783-.783v-.679H2.358a.783.783 0 0 1-.783-.783v-7.82c0-.433.351-.783.783-.783h2.945v-.679c0-.433.351-.783.783-.783h3.728c.433 0 .783.351.783.783v2.983h10.807v-2.983c0-.433.351-.783.783-.783h3.728c.433 0 .783.351.783.783v.679h2.945c.433 0 .783.351.783.783v7.82a.783.783 0 0 1-.783.783h-2.945v.679a.783.783 0 0 1-.783.783zm-2.945-1.567h2.162v-9.179H22.97v9.179zm-16.102 0H9.03v-9.179H6.868v9.179zm19.83-1.462h2.161v-6.254h-2.161v6.254zm-23.558 0h2.161v-6.254H3.14v6.254zm7.456-2.303h10.807v-1.647H10.596v1.647zm3.644-4.798a.784.784 0 0 1-.682-1.168 19.429 19.429 0 0 1 5.504-6.186 22.269 22.269 0 0 0-3.298-3.645 19.263 19.263 0 0 1-11.787 6.031c.102.412.225.819.37 1.221a.784.784 0 0 1-1.474.532 13.827 13.827 0 0 1-.822-4.707C2.051 6.257 8.308 0 15.999 0s13.948 6.257 13.948 13.948c0 1.388-.206 2.761-.612 4.081a.784.784 0 0 1-1.497-.461 12.298 12.298 0 0 0 .463-5.03 17.561 17.561 0 0 0-7.066 2.415 23.75 23.75 0 0 1 1.26 2.272.782.782 0 1 1-1.41.683 22.914 22.914 0 0 0-1.151-2.089 17.845 17.845 0 0 0-5.012 5.653.784.784 0 0 1-.683.399zM6.521 5.991a12.328 12.328 0 0 0-2.822 9.367 17.687 17.687 0 0 0 10.855-5.484 22.105 22.105 0 0 0-8.033-3.883zm10.253 3.701a24.242 24.242 0 0 1 3.584 3.96 19.143 19.143 0 0 1 7.667-2.659 12.438 12.438 0 0 0-7.666-8.635 19.212 19.212 0 0 1-3.585 7.334zM7.766 4.709a23.851 23.851 0 0 1 7.801 3.986A17.65 17.65 0 0 0 18.859 1.9 12.36 12.36 0 0 0 16 1.567a12.334 12.334 0 0 0-8.234 3.142z"/></symbol><symbol id="Food" viewBox="0 0 32 32"><path d="M17.282 24.37H4.357c-.793 0-1.436.512-1.436 1.144v.034c0 .632.643 1.143 1.436 1.143h12.925c.793 0 1.436-.512 1.436-1.143v-.034c0-.632-.643-1.144-1.436-1.144zM6.118 17.741a.412.412 0 1 0 0 .824.412.412 0 0 0 0-.824zM9.213 17.741a.413.413 0 1 0 0 .826.413.413 0 0 0 0-.826zM7.769 16.503a.412.412 0 1 0 0 .825.412.412 0 0 0 0-.825zM10.038 16.4a.412.412 0 1 0 .824 0 .412.412 0 0 0-.824 0zM11.998 18.669a.413.413 0 1 0 0-.826.413.413 0 0 0 0 .826zM13.339 17.324a.412.412 0 1 0 0-.825.412.412 0 0 0 0 .825zM15.402 18.669a.413.413 0 1 0 0-.826.413.413 0 0 0 0 .826zM18.849 22.825a.564.564 0 0 1 .164-.021.515.515 0 1 0 0-1.031 1.513 1.513 0 0 0-.875.258 2.254 2.254 0 0 0-.44.398c-.086.098-.16.189-.228.266a1.202 1.202 0 0 1-.264.243c-.039.023-.076.04-.12.052s-.095.021-.163.021a.514.514 0 0 1-.304-.086 1.245 1.245 0 0 1-.237-.222c-.067-.076-.14-.166-.225-.264a2.152 2.152 0 0 0-.506-.444 1.511 1.511 0 0 0-.817-.222 1.513 1.513 0 0 0-.874.258 2.226 2.226 0 0 0-.44.398c-.087.098-.16.189-.228.266a1.18 1.18 0 0 1-.264.243c-.039.023-.076.04-.12.052s-.095.021-.164.021a.495.495 0 0 1-.304-.086 1.244 1.244 0 0 1-.236-.222c-.067-.076-.14-.166-.225-.263a2.189 2.189 0 0 0-.505-.445 1.511 1.511 0 0 0-.817-.222 1.513 1.513 0 0 0-.874.258 2.254 2.254 0 0 0-.44.398c-.086.098-.159.189-.227.266a1.202 1.202 0 0 1-.264.243c-.039.023-.076.04-.119.052s-.095.021-.164.021a.489.489 0 0 1-.303-.086 1.268 1.268 0 0 1-.237-.221c-.067-.076-.14-.166-.225-.263a2.175 2.175 0 0 0-.506-.445 1.52 1.52 0 0 0-.817-.222 1.531 1.531 0 0 0-.875.258 2.228 2.228 0 0 0-.44.399c-.086.098-.16.189-.227.266a1.202 1.202 0 0 1-.264.243c-.039.023-.076.04-.12.052a.64.64 0 0 1-.348-.006.489.489 0 0 1-.119-.059 1.234 1.234 0 0 1-.236-.221c-.067-.076-.141-.166-.226-.264a2.198 2.198 0 0 0-.506-.445 1.511 1.511 0 0 0-.818-.222.516.516 0 0 0 0 1.031.518.518 0 0 1 .304.087c.069.045.147.119.236.221.067.076.14.166.225.264.128.145.285.31.506.445.11.067.236.123.374.162s.287.059.444.059a1.55 1.55 0 0 0 .874-.258c.187-.124.325-.269.44-.399.086-.098.16-.189.227-.266.101-.116.187-.196.264-.242.039-.023.076-.04.12-.052s.095-.021.164-.021a.518.518 0 0 1 .304.087c.07.045.147.119.237.221.067.076.14.166.225.264.128.145.285.31.506.445a1.519 1.519 0 0 0 .817.221 1.531 1.531 0 0 0 .874-.258c.187-.124.325-.269.44-.399.087-.098.16-.189.228-.266.101-.116.187-.196.264-.242.039-.023.076-.04.12-.052s.095-.021.164-.021a.5.5 0 0 1 .304.087c.069.045.147.119.236.221.067.076.14.166.225.264.128.145.285.31.506.445.11.067.236.123.374.162s.287.059.444.059a1.55 1.55 0 0 0 .874-.258c.187-.124.325-.269.44-.399.086-.098.16-.189.227-.266.101-.116.187-.196.264-.242.039-.023.076-.04.119-.052s.095-.021.164-.021a.493.493 0 0 1 .303.087c.07.045.147.119.237.221.067.076.14.167.226.264.128.145.285.31.505.445.11.067.236.123.374.162s.288.06.444.06a1.513 1.513 0 0 0 .874-.258c.187-.124.325-.269.44-.399.086-.098.16-.189.227-.266.101-.116.187-.196.264-.242a.51.51 0 0 1 .12-.051z"/><path d="M30.463 7.518H25.86l.966-4.442 3.382-1.964-.646-1.113-3.873 2.249-1.146 5.27H14.212l.539 7.025a11.486 11.486 0 0 0-4.062-.732c-2.275.001-4.351.647-5.943 1.677-.796.515-1.473 1.128-1.989 1.813a5.418 5.418 0 0 0-.88 1.713h-.036l-.09.537-.006.032v.003l-.015.044a.967.967 0 0 0-.037.218 1.814 1.814 0 0 0 .094.721 1.36 1.36 0 0 0 .781.819c.213.085.436.119.661.119h14.919c.2 0 .398-.027.59-.093a1.353 1.353 0 0 0 .824-.773c.089-.215.125-.444.125-.676 0-.06-.001-.108-.006-.167a.963.963 0 0 0-.026-.145c-.009-.035-.018-.058-.021-.067l-.001-.002a.372.372 0 0 1-.007-.034c-.134-.804-.491-1.566-1.006-2.251-.63-.836-1.497-1.564-2.531-2.139l-.488-6.357h13.47l-1.474 19.19h-8.28a1.567 1.567 0 0 0-.549-.393 1.83 1.83 0 0 0-.721-.139H3.331a1.77 1.77 0 0 0-.841.196 1.566 1.566 0 0 0-.478.391c-.192.233-.309.5-.38.771s-.097.551-.097.833v.154a2.19 2.19 0 0 0 2.191 2.191h13.925a2.19 2.19 0 0 0 2.191-2.191v-.154a3.83 3.83 0 0 0-.017-.372h8.966l1.672-21.764zm-14.529 9.051c.684.443 1.248.96 1.659 1.507s.67 1.122.765 1.689c.011.066.023.123.037.172l.005.016v.013a.543.543 0 0 1-.023.173c-.008.023-.014.031-.017.035-.005.006-.004.008-.032.02a.498.498 0 0 1-.179.026H3.23a.51.51 0 0 1-.169-.023.128.128 0 0 1-.036-.017c-.005-.006-.008-.004-.02-.031a.46.46 0 0 1-.026-.14l.041-.246c.095-.567.353-1.141.765-1.689.617-.821 1.578-1.573 2.771-2.111s2.611-.866 4.133-.866c2.029-.001 3.875.583 5.244 1.47zm2.622 13.24c0 .251-.1.473-.265.639a.897.897 0 0 1-.639.265H3.727c-.252 0-.473-.1-.639-.265s-.265-.387-.265-.639v-.154c0-.176.016-.335.044-.462a1.01 1.01 0 0 1 .079-.231.484.484 0 0 1 .065-.099c.033-.036.06-.056.104-.076s.11-.036.217-.036h14.716c.128 0 .195.024.239.047a.288.288 0 0 1 .087.072c.042.05.09.139.125.275.035.134.056.311.055.509v.154z"/></symbol><symbol id="Work" viewBox="0 0 32 32"><path d="M25.29 23.226v-1.032h5.161a1.55 1.55 0 0 0 1.548-1.548v-8.258a1.55 1.55 0 0 0-1.548-1.548H16a1.55 1.55 0 0 0-1.548 1.548v8.258A1.55 1.55 0 0 0 16 22.194h5.161v1.032h-8.774v-.516c0-.854-.725-1.548-1.578-1.548H9.063L3.76 12.529c.232-.334.37-.738.37-1.174 0-.127-.016-.25-.038-.371l2.16-3.961A4.091 4.091 0 0 0 7.826 9.5l.337.252 1.274-1.133c.279.101.565.155.856.155a2.584 2.584 0 0 0 2.581-2.581 2.47 2.47 0 0 0-.073-.563l1.277-1.135-.211-.365a4.145 4.145 0 0 0-3.574-2.066c-.097 0-.193.008-.288.014L8.26.333 4.425 3.529l.711.948-3.391 4.845a2.061 2.061 0 0 0-1.744 2.031c0 .774.433 1.442 1.065 1.795l4.268 8.011H3.583c-.854 0-1.518.695-1.518 1.548v.516H.001v3.097h1.548v5.677h1.032V26.32h1.032v5.677h1.032V26.32h22.71v5.677h1.032V26.32h1.032v5.677h1.032V26.32h1.548v-3.097h-6.71zm-9.806-10.839c0-.284.232-.516.516-.516h14.451c.284 0 .516.232.516.516v6.71H15.483v-6.71zm5.677 8.774H16a.517.517 0 0 1-.516-.516v-.516h15.484v.516a.517.517 0 0 1-.516.516h-9.29zm3.097 1.033v1.032h-2.065v-1.032h2.065zM10.431 7.736l1.377-1.224a1.551 1.551 0 0 1-1.377 1.224zm-.138-4.639c.96 0 1.865.453 2.447 1.205L8.127 8.403a3.063 3.063 0 0 1-.931-2.209 3.1 3.1 0 0 1 3.097-3.097zM8.196 1.731l.614.614a4.148 4.148 0 0 0-2.314 2.228l-.657-.877 2.358-1.965zm-2.41 3.616.118.157-2.391 4.383a2.066 2.066 0 0 0-.614-.417l2.887-4.124zm-4.754 6.008a1.033 1.033 0 0 1 2.064 0 1.033 1.033 0 0 1-2.064 0zm1.33 2.034a2.01 2.01 0 0 0 .601-.185l4.888 7.957H6.503l-4.141-7.772zm1.221 8.805h7.226c.284 0 .546.232.546.516v.516H3.097v-.516c0-.284.202-.516.486-.516zm27.385 3.096H1.033v-1.032h29.935v1.032z"/><path d="M14.968 8.774h16.516v1.032H14.968V8.774zM22.193 0h-4.129v8.258h4.129V0zm-1.032 7.226h-2.065V5.161h2.065v2.065zm0-3.097h-2.065V1.032h2.065v3.097z"/><path d="M20.645 6.194a.516.516 0 1 1-1.032 0 .516.516 0 0 1 1.032 0zM26.839 0H22.71v8.258h4.129V0zm-3.097 1.032h2.065v3.097h-2.065V1.032zm2.064 6.194h-2.065V5.161h2.065v2.065z"/><path d="M25.29 6.194a.516.516 0 1 1-1.032 0 .516.516 0 0 1 1.032 0zM31.484 0h-4.129v8.258h4.129V0zm-3.097 1.032h2.065v3.097h-2.065V1.032zm2.064 6.194h-2.065V5.161h2.065v2.065z"/><path d="M29.935 6.194a.516.516 0 1 1-1.032 0 .516.516 0 0 1 1.032 0z"/></symbol><symbol id="Hobbies" viewBox="0 0 32 32"><path d="M24.639 0H7.505C6.242 0 5.144 1.025 5.144 2.285v27.429c0 1.26 1.099 2.285 2.361 2.285h17.134c1.263 0 2.219-1.025 2.219-2.285V2.285c0-1.26-.956-2.285-2.218-2.285zm1.075 29.715c0 .63-.443 1.143-1.076 1.143H7.504c-.633 0-1.219-.513-1.219-1.143V2.286c0-.63.586-1.143 1.219-1.143h17.134c.633 0 1.076.513 1.076 1.143v27.429z"/><path d="M20.631 11.185a4.576 4.576 0 0 0-4.559-4.899 4.577 4.577 0 0 0-4.559 4.899 4.59 4.59 0 0 0-2.869 4.244A4.576 4.576 0 0 0 13.215 20a4.53 4.53 0 0 0 2.857-1.002A4.536 4.536 0 0 0 18.929 20a4.577 4.577 0 0 0 4.572-4.572 4.59 4.59 0 0 0-2.869-4.244zm-1.702 7.672a3.4 3.4 0 0 1-2.449-1.029.572.572 0 0 0-.816 0 3.4 3.4 0 0 1-2.449 1.029 3.433 3.433 0 0 1-3.429-3.429 3.44 3.44 0 0 1 2.504-3.303.572.572 0 0 0 .409-.652 3.433 3.433 0 0 1 3.374-4.046 3.433 3.433 0 0 1 3.374 4.046.57.57 0 0 0 .409.652 3.44 3.44 0 0 1 2.504 3.303 3.433 3.433 0 0 1-3.429 3.429zM18.803 23.643l-2.286-2.857a.57.57 0 0 0-.892 0l-2.286 2.857a.573.573 0 0 0 .446.929h4.571a.57.57 0 0 0 .446-.929zm-3.828-.214 1.097-1.371 1.097 1.371h-2.194z"/></symbol><symbol id="Travel" viewBox="0 0 32 32"><path d="M17.882 5.556c-6.264 0-11.339 5.076-11.34 11.34s5.076 11.34 11.34 11.34 11.34-5.076 11.34-11.34-5.076-11.339-11.34-11.34zm-6.668 4.673a9.487 9.487 0 0 1 2.16-1.616 11.636 11.636 0 0 0-1.095 2.165h-1.565c.161-.188.325-.375.5-.55zm-1.605 2.142h2.17a17.858 17.858 0 0 0-.531 3.728H8.494a9.378 9.378 0 0 1 1.115-3.728zm.001 9.05a9.37 9.37 0 0 1-1.117-3.729h2.743a17.84 17.84 0 0 0 .541 3.729H9.609zm1.604 2.142a9.25 9.25 0 0 1-.499-.549h1.565c.222.576.474 1.118.756 1.617.109.192.226.372.344.551a9.419 9.419 0 0 1-2.165-1.619zm5.871 2.722c-.079-.006-.159-.01-.238-.019a3.516 3.516 0 0 1-.775-.439c-.771-.573-1.503-1.547-2.069-2.813h3.082v3.271zm0-4.864h-3.653c-.329-1.125-.532-2.386-.593-3.729h4.245v3.729zm0-5.322h-4.257a15.93 15.93 0 0 1 .599-3.728h3.658v3.728zm0-5.32h-3.078c.131-.292.268-.573.415-.834.488-.865 1.059-1.539 1.65-1.98.257-.191.515-.331.774-.438.079-.009.159-.013.238-.019v3.271zm9.07 1.592a9.357 9.357 0 0 1 1.115 3.728h-2.743a17.83 17.83 0 0 0-.541-3.728h2.169zm-1.606-2.142c.175.175.339.361.5.55h-1.566a12.299 12.299 0 0 0-.756-1.618c-.109-.191-.226-.371-.342-.551a9.52 9.52 0 0 1 2.165 1.619zm-5.871-2.721c.079.007.159.011.238.019.259.107.517.247.774.438.771.572 1.503 1.548 2.07 2.813h-3.082V7.507zm0 4.863h3.653c.328 1.125.532 2.386.592 3.728h-4.245v-3.728zm2.663 11.476c-.488.865-1.059 1.539-1.65 1.98a3.516 3.516 0 0 1-.775.439c-.079.009-.159.013-.238.019v-3.271h3.078a9.648 9.648 0 0 1-.415.833zm-2.663-2.426v-3.729h4.257a15.939 15.939 0 0 1-.599 3.729h-3.658zm5.871 2.142a9.458 9.458 0 0 1-2.16 1.616c.421-.644.788-1.37 1.094-2.165h1.565a9.25 9.25 0 0 1-.499.549zm1.605-2.142h-2.169c.3-1.154.476-2.411.531-3.729h2.754a9.368 9.368 0 0 1-1.116 3.729z"/><path d="M25.103 28.688a13.757 13.757 0 0 1-7.208 2.038c-4.655 0-9.197-2.348-11.805-6.608a13.76 13.76 0 0 1-2.038-7.208C4.053 12.255 6.4 7.714 10.66 5.105l-.665-1.086a15.093 15.093 0 0 0-7.217 12.892 15.02 15.02 0 0 0 2.226 7.873c2.848 4.65 7.812 7.217 12.892 7.217 2.689 0 5.414-.719 7.874-2.226l-.666-1.087zM15.287 4.364h5.962c.614 0 1.112-.207 1.112-.822 0-.614-1.175-1.208-1.789-1.208H19.34L16.834.078c-.126-.139-.623-.048-.774-.047-.186.001-.146.299-.074.472l.732 1.832h-1.754L14.002.807a.607.607 0 0 0-1.053.408l-.016 1.12v.331c0 .939 1.128 1.7 2.353 1.7z"/></symbol><symbol id="React" viewBox="0 0 32 32"><path d="M14.313 22.211c.55.025 1.112.043 1.681.043.575 0 1.143-.012 1.7-.043a24.153 24.153 0 0 1-1.689 1.964l.008-.008a25.439 25.439 0 0 1-1.659-1.902l-.041-.054zm-5.698-.8c1.083.275 2.404.509 3.752.653l.131.011a29.77 29.77 0 0 0 2.554 3.068l-.011-.012a9.014 9.014 0 0 1-5.081 2.86l-.055.008h-.012a1.47 1.47 0 0 1-.687-.169l.008.004c-.832-.475-1.193-2.292-.912-4.627.067-.575.177-1.18.312-1.797zm14.783-.013c.118.474.229 1.078.308 1.692l.009.086c.287 2.334-.067 4.149-.892 4.634a1.32 1.32 0 0 1-.638.162l-.069-.002h.003a9.076 9.076 0 0 1-5.129-2.841l-.007-.008a28.93 28.93 0 0 0 2.466-2.965l.058-.084a28.62 28.62 0 0 0 4.088-.717l-.197.042zM9.784 17.666c.25.49.512.978.8 1.468q.431.731.881 1.428a27.36 27.36 0 0 1-2.507-.482 27.41 27.41 0 0 1 .825-2.416zm12.428-.025c.331.821.612 1.64.845 2.434-.8.196-1.645.362-2.519.487a32.161 32.161 0 0 0 1.676-2.922zM7.619 12.292a28.677 28.677 0 0 0 1.449 3.906l-.075-.182a26.807 26.807 0 0 0-1.305 3.499l-.052.205a17.189 17.189 0 0 1-1.827-.669l.115.044c-2.164-.921-3.564-2.132-3.564-3.092s1.4-2.177 3.564-3.094c.525-.225 1.1-.428 1.694-.617zm16.739-.005c.605.187 1.18.396 1.718.622 2.164.925 3.564 2.134 3.564 3.094-.006.96-1.406 2.174-3.57 3.093-.525.225-1.1.427-1.693.616a29.43 29.43 0 0 0-1.451-3.912l.076.188a26.887 26.887 0 0 0 1.303-3.498l.053-.206zm-3.828-.843c.869.129 1.706.287 2.507.484-.225.79-.506 1.602-.825 2.416a32.183 32.183 0 0 0-1.681-2.899zm-9.072 0c-.3.471-.6.953-.88 1.45-.281.487-.544.977-.794 1.467a26.115 26.115 0 0 1-.845-2.433c.8-.187 1.643-.354 2.518-.482zM16 11.126c.925 0 1.846.042 2.752.116q.761 1.091 1.478 2.324.697 1.2 1.272 2.432a33.79 33.79 0 0 1-1.266 2.437c-.475.825-.966 1.61-1.475 2.337a31.94 31.94 0 0 1-5.514.006 33.482 33.482 0 0 1-1.478-2.324q-.697-1.2-1.272-2.432a31.45 31.45 0 0 1 1.266-2.442 31.34 31.34 0 0 1 1.475-2.334c.91-.08 1.832-.122 2.762-.122zm-.019-3.281c.58.6 1.136 1.237 1.659 1.901l.04.053a37.012 37.012 0 0 0-1.681-.042c-.575 0-1.143.012-1.7.042a23.765 23.765 0 0 1 1.689-1.964l-.008.008zM9.88 4.033a9.09 9.09 0 0 1 5.129 2.841l.007.008A28.858 28.858 0 0 0 12.55 9.85l-.058.084a28.46 28.46 0 0 0-4.086.714l.196-.042a18.54 18.54 0 0 1-.317-1.774c-.287-2.334.067-4.149.892-4.632.206-.097.447-.157.701-.165h.003zm12.21-.025v.008l.044-.001c.239 0 .464.059.662.163l-.008-.004c.832.477 1.193 2.293.912 4.629a18.63 18.63 0 0 1-.312 1.799 27.132 27.132 0 0 0-3.754-.656l-.128-.011a29.934 29.934 0 0 0-2.555-3.07l.012.012a9.036 9.036 0 0 1 5.074-2.859l.056-.009zm.006-1.362a10.243 10.243 0 0 0-6.1 3.268l-.008.009a10.222 10.222 0 0 0-6.051-3.245l-.056-.007h-.045c-.491 0-.952.129-1.351.355l.014-.007c-1.718.991-2.103 4.079-1.216 7.954-3.804 1.175-6.278 3.053-6.278 5.032 0 1.987 2.487 3.87 6.302 5.036-.88 3.89-.487 6.983 1.235 7.973.378.217.832.344 1.315.344l.065-.001h-.003a10.24 10.24 0 0 0 6.1-3.27l.008-.009a10.218 10.218 0 0 0 6.051 3.246l.056.007h.052c.488 0 .947-.128 1.344-.351l-.014.007c1.717-.99 2.103-4.078 1.216-7.954 3.79-1.165 6.264-3.047 6.264-5.029 0-1.987-2.487-3.87-6.302-5.039.88-3.886.487-6.982-1.235-7.973a2.675 2.675 0 0 0-1.328-.348h-.039.002zm-3.309 13.359a2.794 2.794 0 1 1-.818-1.976c.506.506.818 1.204.818 1.976z"/></symbol><symbol id="JavaScript" viewBox="0 0 32 32"><path d="M31 31.36H1v-.72h30v.72zm0-7H1A.36.36 0 0 1 .64 24V1A.36.36 0 0 1 1 .64h30a.36.36 0 0 1 .36.36v23a.36.36 0 0 1-.36.36zm-29.64-.72h29.28V1.36H1.36v22.28zm7.691-8.286v-.182c0-.476.266-.812.854-.812s.854.336.854.812v.182c0 .477-.266.812-.854.812s-.854-.336-.854-.812zm3.947-6.584h1.121v8.349c0 .994-.49 1.68-1.569 1.68h-.728v-.98h1.176V8.77zm-.126-2.325v-.182c0-.378.21-.63.687-.63s.687.252.687.63v.182c0 .378-.21.63-.687.63s-.687-.252-.687-.63zm2.94 8.306.798-.645c.561.701 1.232 1.106 2.144 1.106.952 0 1.513-.434 1.513-1.176 0-.561-.309-.995-1.261-1.135l-.574-.084c-1.331-.196-2.326-.743-2.326-2.087 0-1.429 1.107-2.129 2.578-2.129 1.163 0 1.934.434 2.521 1.163l-.742.672c-.322-.448-.938-.882-1.863-.882s-1.415.434-1.415 1.121c0 .7.49.98 1.387 1.121l.561.084c1.597.238 2.213.938 2.213 2.031 0 1.4-1.022 2.255-2.675 2.255-1.332 0-2.215-.56-2.859-1.415z"/></symbol></defs></svg>