<svg aria-hidden="true" style="position: absolute; width: 0; height: 0; overflow: hidden;" version="1.1" xmlns="http://www.w3.org/2000/svg" xmlns:xlink="http://www.w3.org/1999/xlink">
<defs>
<symbol id="Problems" viewBox="0 0 32 32">
<path d="M29.029 19.87l-4.029-1.239v-1.067c0.924-0.908 1.5-2.169 1.5-3.564h0.5c1.378 0 2.5-1.121 2.5-2.5 0-0.813-0.396-1.53-1-1.987v-2.013c0-3.86-3.14-7-7-7s-7 3.14-7 7v2.013c-0.604 0.457-1 1.174-1 1.987s0.396 1.53 1 1.987v1.013c0 0.827 0.673 1.5 1.5 1.5h0.921c0.259 0.59 0.627 1.119 1.079 1.564v1.067l-4.029 1.239c-1.478 0.454-2.47 1.8-2.47 3.346v0.971c-0.396-0.597-0.901-1.127-1.5-1.557v-13.261c1.571-1.129 2.5-2.928 2.5-4.87 0-1.391-0.489-2.748-1.379-3.82l-0.15-0.18h-2.972v4.5h-3v-4.5h-2.971l-0.15 0.18c-0.889 1.072-1.379 2.429-1.379 3.82 0 1.941 0.929 3.741 2.5 4.87v13.261c-1.571 1.129-2.5 2.929-2.5 4.87 0 1.391 0.49 2.747 1.379 3.82l0.15 0.18h2.971v-4.5h3v4.5h2.971l0.15-0.18c0.137-0.165 0.261-0.338 0.379-0.517v0.697h20v-8.284c0-1.546-0.992-2.891-2.471-3.346zM25.769 19.913l-1.485 3.341-2-1.332 2.356-2.356 1.128 0.347zM20.929 25h1.142l0.846 5.5h-2.834l0.846-5.5zM22.233 24h-1.465l-0.421-0.631 1.152-0.768 1.152 0.768-0.42 0.631zM27 13h-0.5v-3h0.5c0.827 0 1.5 0.673 1.5 1.5s-0.673 1.5-1.5 1.5zM15.5 7.5c0-3.309 2.692-6 6-6s6 2.691 6 6v1.55c-0.162-0.033-0.329-0.050-0.5-0.050h-1c-1.479 0-2.869-0.575-3.914-1.621l-0.586-0.586-0.586 0.586c-1.046 1.046-2.436 1.621-3.914 1.621h-1c-0.171 0-0.338 0.018-0.5 0.050v-1.55zM16 10h0.5v3h-0.5c-0.827 0-1.5-0.673-1.5-1.5s0.673-1.5 1.5-1.5zM16 15c-0.276 0-0.5-0.224-0.5-0.5v-0.55c0.162 0.033 0.329 0.050 0.5 0.050h0.5c0 0.342 0.035 0.677 0.101 1h-0.601zM19.092 16c0.207 0.581 0.757 1 1.408 1h2c0.827 0 1.5-0.673 1.5-1.5s-0.673-1.5-1.5-1.5h-2c-0.651 0-1.201 0.419-1.408 1h-1.46c-0.083-0.32-0.131-0.654-0.131-1v-4.018c1.502-0.113 2.901-0.733 4-1.777 1.099 1.044 2.498 1.665 4 1.777v4.018c0 2.206-1.794 4-4 4-1.477 0-2.766-0.806-3.459-2h1.051zM20 15.5c0-0.276 0.224-0.5 0.5-0.5h2c0.276 0 0.5 0.224 0.5 0.5s-0.224 0.5-0.5 0.5h-2c-0.276 0-0.5-0.224-0.5-0.5zM21.5 19c0.911 0 1.764-0.249 2.5-0.677v0.47l-2.5 2.5-2.5-2.5v-0.47c0.736 0.427 1.589 0.677 2.5 0.677zM18.36 19.567l2.356 2.356-2 1.332-1.485-3.341 1.128-0.347zM10.495 30.5h-1.495v-3.5c0-0.552-0.448-1-1-1h-3c-0.551 0-1 0.448-1 1v3.5h-1.495c-0.649-0.862-1.005-1.919-1.005-3 0-1.694 0.849-3.259 2.273-4.188l0.227-0.148v-14.329l-0.227-0.148c-1.424-0.928-2.273-2.494-2.273-4.188 0-1.082 0.355-2.138 1.005-3h1.495v3.5c0 0.551 0.449 1 1 1h3c0.552 0 1-0.449 1-1v-3.5h1.495c0.649 0.862 1.005 1.918 1.005 3 0 1.694-0.85 3.259-2.274 4.188l-0.226 0.148v14.329l0.226 0.148c1.424 0.928 2.274 2.494 2.274 4.188 0 1.081-0.355 2.138-1.005 3zM12.5 23.216c0-1.105 0.71-2.065 1.764-2.389l2.004-0.616 2.016 4.535 1.231-0.821 0.461 0.692-0.905 5.884h-2.571v-6h-1v6h-3v-7.284zM30.5 30.5h-3v-6h-1v6h-2.571l-0.905-5.884 0.461-0.692 1.231 0.821 2.016-4.535 2.003 0.616c1.055 0.325 1.765 1.285 1.765 2.389v7.285z"></path>
<path d="M19.5 11c0 0.276-0.224 0.5-0.5 0.5s-0.5-0.224-0.5-0.5c0-0.276 0.224-0.5 0.5-0.5s0.5 0.224 0.5 0.5z"></path>
<path d="M24.5 11c0 0.276-0.224 0.5-0.5 0.5s-0.5-0.224-0.5-0.5c0-0.276 0.224-0.5 0.5-0.5s0.5 0.224 0.5 0.5z"></path>
<path d="M7 14.5h1v1h-1v-1z"></path>
<path d="M6.5 9c-0.827 0-1.5 0.673-1.5 1.5v3h1v-3c0-0.276 0.224-0.5 0.5-0.5s0.5 0.224 0.5 0.5v3h1v-3c0-0.827-0.673-1.5-1.5-1.5z"></path>
<path d="M5 14.5h1v1h-1v-1z"></path>
<path d="M5 16.5h1v1h-1v-1z"></path>
<path d="M7 21.5c0 0.276-0.224 0.5-0.5 0.5s-0.5-0.224-0.5-0.5v-3h-1v3c0 0.827 0.673 1.5 1.5 1.5s1.5-0.673 1.5-1.5v-3h-1v3z"></path>
<path d="M7 16.5h1v1h-1v-1z"></path>
</symbol>
<symbol id="Games" viewBox="0 0 32 32">
<path d="M24.94 11.173c-0.516 0.758-1.613 0.758-2.13 0-0.287-0.421-0.287-1 0-1.421 0.516-0.758 1.613-0.758 2.13 0 0.287 0.421 0.287 1 0 1.421zM27.866 14.051c-0.516 0.758-1.613 0.758-2.13 0-0.287-0.421-0.287-1 0-1.421 0.516-0.758 1.613-0.758 2.13 0 0.287 0.421 0.287 1 0 1.421zM21.95 14.051c-0.516 0.758-1.613 0.758-2.13 0-0.287-0.421-0.287-1 0-1.421 0.516-0.758 1.613-0.758 2.13 0 0.287 0.421 0.287 1 0 1.421zM24.94 17.025c-0.516 0.758-1.613 0.758-2.13 0-0.287-0.421-0.287-1 0-1.421 0.516-0.758 1.613-0.758 2.13 0 0.287 0.421 0.287 1 0 1.421zM11.256 13.388c0-1.657-1.343-3-3-3s-3 1.343-3 3 1.343 3 3 3 3-1.343 3-3zM12.536 13.388c0 2.364-1.916 4.28-4.28 4.28s-4.28-1.916-4.28-4.28 1.916-4.28 4.28-4.28 4.28 1.916 4.28 4.28z"></path>
<path d="M30.72 22.735c-0.011 1.937-1.586 3.505-3.526 3.505-1.25 0-2.386-0.655-3.021-1.705-0.183-0.302-0.576-0.399-0.879-0.217s-0.399 0.576-0.217 0.879c0.864 1.43 2.413 2.322 4.116 2.322 2.654 0 4.806-2.151 4.806-4.805l-0.039-0.61-1.27-8.79c-0.734-5.072-5.082-8.835-10.209-8.835h-5.877c-0.353 0-0.64 0.287-0.64 0.64s0.287 0.64 0.64 0.64h5.877c4.491 0 8.3 3.296 8.942 7.739l1.261 8.716 0.035 0.52z"></path>
<path d="M15.997 21.491c2.829 0 5.426 1.372 7.033 3.635 0.205 0.288 0.604 0.356 0.892 0.151s0.356-0.604 0.151-0.892c-1.845-2.598-4.829-4.174-8.077-4.174-0.353 0-0.64 0.287-0.64 0.64s0.287 0.64 0.64 0.64zM1.315 22.215l1.261-8.716c0.643-4.442 4.452-7.739 8.942-7.739h5.877c0.353 0 0.64-0.287 0.64-0.64s-0.287-0.64-0.64-0.64h-5.877c-5.127 0-9.475 3.763-10.209 8.835l-1.265 8.741-0.043 0.616c-0.001 2.696 2.151 4.848 4.805 4.848 1.703 0 3.252-0.893 4.116-2.322 0.183-0.302 0.086-0.696-0.217-0.879s-0.696-0.086-0.879 0.217c-0.635 1.050-1.771 1.705-3.021 1.705-1.941 0-3.515-1.567-3.526-3.505l0.035-0.52z"></path>
<path d="M16.003 20.211c-3.248 0-6.232 1.576-8.077 4.174-0.205 0.288-0.137 0.688 0.151 0.892s0.688 0.137 0.892-0.151c1.607-2.263 4.204-3.635 7.033-3.635 0.353 0 0.64-0.287 0.64-0.64s-0.287-0.64-0.64-0.64z"></path>
</symbol>
<symbol id="Computers" viewBox="0 0 32 32">
<path d="M0.008 0.158v21.277h12.567v1.873h-4.045v1.169h15.345v-1.169h-4.045v-1.873h12.171v-21.277h-31.992zM30.831 1.328v16.557h-29.654v-16.557h29.654zM18.66 23.309h-4.916v-1.873h4.916v1.873zM1.177 20.266v-1.212h29.654v1.212h-29.654z"></path>
<path d="M1.82 26.346l-1.82 5.028h26.454l-1.82-5.028h-22.815zM1.667 30.205l0.973-2.689h21.174l0.973 2.689h-23.121z"></path>
<path d="M31.159 27.177c-0.263-0.944-1.131-1.603-2.11-1.603-0.18 0-0.361 0.023-0.537 0.067-1.162 0.293-1.865 1.439-1.601 2.608l0.426 1.884c0.227 1.006 1.106 1.709 2.136 1.709 0.18 0 0.361-0.023 0.537-0.067l0.093-0.024c0.578-0.146 1.060-0.51 1.359-1.025s0.375-1.115 0.215-1.689l-0.519-1.861zM30.451 30.139c-0.139 0.24-0.365 0.41-0.634 0.478l-0.093 0.024c-0.083 0.021-0.167 0.032-0.251 0.032-0.473 0-0.891-0.335-0.996-0.797l-0.426-1.884c-0.123-0.545 0.205-1.079 0.747-1.216 0.083-0.021 0.167-0.031 0.251-0.031 0.456 0 0.861 0.307 0.983 0.748l0.519 1.861c0.075 0.268 0.039 0.547-0.1 0.788z"></path>
<path d="M16.331 11.477l2.047 2.047 0.827-0.827-2.047-2.047 1.444-1.444-6.498-2.784 2.784 6.498 1.443-1.444zM16.553 9.601l-1.271 1.271-0.953-2.224 2.224 0.953z"></path>
</symbol>
<symbol id="Learning" viewBox="0 0 32 32">
<path d="M18.050 0.029c-6.906-0.425-12.72 3.919-12.589 10.997l-0.005 0.641-3 5.298c-0.161 0.285-0.176 0.631-0.038 0.93 0.136 0.299 0.408 0.513 0.73 0.576l1.854 0.512 0.582 5.619c0.016 0.541 0.257 1.050 0.665 1.407 0.408 0.355 0.948 0.523 1.486 0.463l1.481 0.118c0.289-0.032 0.578 0.060 0.794 0.253s0.34 0.472 0.34 0.762v4.395h12.526c0 0 0-2.121 0-2.975s0.294-2.807 0.855-3.7c2.030-3.247 5.336-4.974 5.894-11.634s-3.417-13.159-11.575-13.662zM26.685 12.412c-0.614 0-1.256 0-1.256 0-0.306-0.001-0.554-0.249-0.554-0.554v-0.774c0-0.283-0.231-0.514-0.514-0.514s-0.514 0.231-0.514 0.514v0.774c0 0.874 0.709 1.582 1.583 1.583 0.002 0 0.524 0 1.078 0-0.591 2.437-2.217 3.355-3.848 2.434-1.063-0.601-0.972-1.498-1.468-2.243v-2.719c0-0.283-0.231-0.514-0.514-0.514s-0.514 0.231-0.514 0.514v1.913c-0.738-0.316-1.913-0.519-3.876-0.519-0.531 0-1.022-0.004-1.479-0.013v-2.066c0-0.284-0.231-0.514-0.514-0.514s-0.514 0.23-0.514 0.514v2.037c-4.158-0.162-4.77-0.83-5.097-2.511-0.013-0.1-0.023-0.199-0.031-0.298h2.183c1.035 0 1.874-0.839 1.874-1.874v-0.809c0-0.284-0.23-0.514-0.514-0.514s-0.514 0.23-0.514 0.514v0.809c-0.001 0.467-0.379 0.845-0.846 0.846h-2.185c0.126-1.43 0.801-2.6 1.852-3.669 0.803-0.819 1.792-1.453 2.915-1.883 0 0.665 0 1.313 0 1.574 0.003 0.441 0.158 0.89 0.455 1.273 0.149 0.19 0.339 0.361 0.57 0.486 0.23 0.126 0.504 0.201 0.797 0.201 0.826 0 1.652 0 1.652 0 0.284 0 0.514-0.231 0.514-0.514s-0.23-0.514-0.514-0.514c0 0-0.826 0-1.652 0-0.12-0.001-0.217-0.028-0.308-0.077-0.136-0.072-0.263-0.206-0.352-0.37-0.089-0.162-0.135-0.351-0.133-0.484 0-0.303 0-1.132 0-1.899 0.853-0.22 1.763-0.337 2.714-0.337 0.242 0 0.487 0.007 0.732 0.023 2.157 0.133 4.024 0.809 5.486 1.971v4.521c0 0.284 0.231 0.515 0.514 0.515s0.514-0.231 0.514-0.515v-3.551c0.027 0.030 0.055 0.060 0.083 0.090 1.473 1.705 2.267 4.057 2.246 6.551-0.010 0.206-0.027 0.402-0.047 0.593z"></path>
<path d="M20.161 5.386c-0.284 0-0.514 0.231-0.514 0.514v1.661c-0.001 0.359-0.291 0.652-0.651 0.652h-1.833c-0.284 0-0.514 0.229-0.514 0.513s0.23 0.515 0.514 0.515h1.833c0.928-0.002 1.68-0.752 1.68-1.681v-1.661c0-0.284-0.23-0.514-0.514-0.514z"></path>
</symbol>
<symbol id="Life" viewBox="0 0 32 32">
<path d="M21.334 6.728c0-3.009-2.44-5.448-5.449-5.448s-5.45 2.439-5.45 5.448 2.44 5.448 5.45 5.448c3.010 0 5.449-2.439 5.449-5.448zM22.614 6.728c0 3.716-3.013 6.728-6.729 6.728s-6.73-3.012-6.73-6.728 3.013-6.728 6.73-6.728c3.716 0 6.729 3.012 6.729 6.728z"></path>
<path d="M22.81 30.72c0.527 0 0.96-0.433 0.96-0.96v-10.544c0-3.167-2.593-5.76-5.76-5.76h-4.25c-3.167 0-5.76 2.593-5.76 5.76v10.544c0 0.527 0.433 0.96 0.96 0.96h13.85zM22.81 32h-13.85c-1.233 0-2.24-1.007-2.24-2.24v-10.544c0-3.873 3.167-7.040 7.040-7.040h4.25c3.873 0 7.040 3.167 7.040 7.040v10.544c0 1.233-1.007 2.24-2.24 2.24z"></path>
<path d="M21.812 16.832c1.112 1.103 1.112 2.894 0 3.996l-2.724 2.702c-0.465 0.46-1.215 0.46-1.679-0l-2.724-2.702c-1.112-1.103-1.112-2.893-0-3.997 0.969-0.961 2.462-1.083 3.564-0.365 1.101-0.718 2.595-0.597 3.564 0.364zM20.911 19.919c0.607-0.602 0.607-1.576-0-2.179-0.61-0.605-1.601-0.605-2.211 0l-0.451 0.447-0.451-0.447c-0.61-0.605-1.601-0.605-2.212 0-0.607 0.602-0.607 1.577 0 2.179l2.662 2.641 2.662-2.641z"></path>
</symbol>
<symbol id="Books" viewBox="0 0 32 32">
<path d="M30.437 28.155h-0.891v-2.982h0.891c0.308 0 0.557-0.249 0.557-0.557v-2.731c0-0.265-0.185-0.486-0.432-0.542 0.19-0.326 0.299-0.704 0.299-1.107v-4.062c0-1.216-0.99-2.206-2.207-2.206h-2.552c-0.308 0-0.557 0.249-0.557 0.557s0.249 0.557 0.557 0.557h2.552c0.602 0 1.093 0.49 1.093 1.092v4.062c0 0.6-0.486 1.088-1.085 1.092h-11.237c0.184-0.322 0.29-0.695 0.29-1.092v-4.062c0-0.397-0.106-0.77-0.291-1.092h6.821c0.308 0 0.557-0.249 0.557-0.557s-0.249-0.557-0.557-0.557h-3.684c1.201-1.085 1.924-2.65 1.924-4.309 0-1.933-0.948-3.748-2.358-4.514-0.932-0.506-1.985-0.528-3.027-0.076-0.064-0.268-0.153-0.577-0.277-0.885h0.477c1.481 0 2.687-1.205 2.687-2.687v-0.94c0-0.308-0.249-0.557-0.557-0.557h-0.941c-1.481 0-2.687 1.205-2.687 2.687v0.091c-0.258-0.171-0.561-0.275-0.916-0.275-0.308 0-0.557 0.249-0.557 0.557s0.249 0.557 0.557 0.557c0.458 0 0.801 0.646 1.013 1.309-0.917-0.296-1.829-0.226-2.648 0.219-1.41 0.767-2.358 2.581-2.358 4.514 0 1.659 0.723 3.224 1.924 4.309h-10.345c-0.308 0-0.557 0.249-0.557 0.557v2.228c0 0.308 0.249 0.557 0.557 0.557h0.668v1.79h-0.668c-0.308 0-0.557 0.249-0.557 0.557v2.228c0 0.308 0.249 0.557 0.557 0.557h0.611c-1.262 0.977-2.077 2.505-2.077 4.221 0 1.424 0.555 2.764 1.562 3.773s2.348 1.563 3.773 1.563h24.096c0.308 0 0.557-0.249 0.557-0.557v-2.731c0-0.308-0.249-0.557-0.557-0.557zM16.917 2.687c0-0.867 0.705-1.572 1.572-1.572h0.383v0.383c0 0.867-0.705 1.572-1.572 1.572h-0.383v-0.383zM12.008 9.66c0-1.513 0.73-2.967 1.776-3.535 0.781-0.425 1.681-0.333 2.603 0.264 0.184 0.119 0.421 0.119 0.606 0 0.922-0.597 1.822-0.688 2.603-0.264 1.045 0.568 1.776 2.022 1.776 3.535 0 1.797-1.049 3.457-2.673 4.23-0.197 0.094-3.819 0.094-4.016 0-1.624-0.772-2.673-2.433-2.673-4.23zM3.030 21.329v-1.114h5.171c0.308 0 0.557-0.249 0.557-0.557s-0.249-0.557-0.557-0.557h-3.946v-1.79h10.117v1.79h-4.314c-0.308 0-0.557 0.249-0.557 0.557s0.249 0.557 0.557 0.557h4.871c0.308 0 0.557-0.249 0.557-0.557v-2.904c0-0.308-0.249-0.557-0.557-0.557h-11.899v-1.114h12.478c0.602 0 1.093 0.49 1.093 1.092v4.062c0 0.599-0.484 1.086-1.082 1.092h-9.178c-0.007 0-0.014 0-0.021 0h-3.289zM29.88 30.886h-11.656c-1.127 0-2.187-0.439-2.985-1.237-0.218-0.218-0.57-0.218-0.788 0s-0.218 0.57 0 0.788c0.162 0.162 0.333 0.311 0.511 0.449h-8.622c-1.127 0-2.187-0.439-2.985-1.236s-1.236-1.858-1.236-2.985c0-2.32 1.882-4.209 4.199-4.221h8.647c-1.262 0.977-2.077 2.505-2.077 4.221 0 0.831 0.186 1.628 0.553 2.369 0.137 0.276 0.471 0.388 0.747 0.252s0.388-0.471 0.252-0.747c-0.29-0.585-0.437-1.215-0.437-1.873 0-2.323 1.886-4.213 4.206-4.221h10.445c0.005 0 0.009-0 0.014-0h1.211v1.616h-11.656c-1.436 0-2.604 1.169-2.604 2.605s1.168 2.605 2.604 2.605h11.656v1.616zM28.431 28.155h-10.208c-0.822 0-1.49-0.669-1.49-1.491s0.668-1.491 1.49-1.491h10.208v2.982z"></path>
</symbol>
<symbol id="Plans" viewBox="0 0 32 32">
<path d="M30.55 18v-4l-3.8-0.4c-0.3-1.25-0.75-2.4-1.4-3.45l2.4-2.95-2.85-2.85-2.95 2.4c-1.050-0.65-2.2-1.15-3.45-1.45l-0.5-3.85h-4l-0.4 3.75c-1.25 0.3-2.4 0.75-3.45 1.45l-2.95-2.4-2.85 2.85 2.4 2.95c-0.65 1.050-1.15 2.2-1.4 3.45l-3.9 0.5v4l3.8 0.4c0.3 1.25 0.75 2.4 1.45 3.45l-2.4 3 2.85 2.85 3-2.4c1.050 0.65 2.2 1.15 3.4 1.4l0.4 3.85h4.050l0.4-3.85c1.25-0.3 2.4-0.75 3.4-1.4l3 2.4 2.85-2.85-2.4-3c0.65-1.050 1.15-2.2 1.45-3.45l3.85-0.4zM29.55 14.9v2.25l-2.6 0.3c0.050-0.45 0.1-0.95 0.1-1.45 0-0.45-0.050-0.9-0.1-1.35l2.6 0.25zM24.8 5.65l1.6 1.6-1.65 2.050c-0.55-0.75-1.25-1.4-1.95-2l2-1.65zM14.9 2.45h2.25l0.3 2.6c-0.5-0.050-1-0.1-1.45-0.1s-0.95 0.050-1.4 0.1l0.3-2.6zM5.65 7.2l1.6-1.6 2.050 1.65c-0.75 0.6-1.4 1.25-2 2l-1.65-2.050zM2.45 17.1v-2.25l2.6-0.3c0 0.5-0.050 0.95-0.050 1.4 0 0.5 0.050 0.95 0.1 1.45l-2.65-0.3zM7.25 26.35l-1.6-1.6 1.65-2.050c0.6 0.75 1.25 1.4 2 2l-2.050 1.65zM17.1 29.55h-2.25l-0.3-2.65c0.45 0.050 0.95 0.1 1.4 0.1 0.5 0 0.95-0.050 1.4-0.1l-0.25 2.65zM26.35 24.8l-1.6 1.6-2.050-1.65c0.75-0.55 1.4-1.25 2-2l1.65 2.050zM23.050 23.050c-1.8 1.8-4.3 2.95-7.050 2.95s-5.25-1.1-7.050-2.95c-1.8-1.8-2.95-4.3-2.95-7.050s1.1-5.25 2.95-7.050c1.8-1.8 4.3-2.95 7.050-2.95s5.25 1.1 7.050 2.95c1.8 1.8 2.95 4.3 2.95 7.050s-1.1 5.25-2.95 7.050z"></path>
<path d="M16 6.95c-4.95 0-9 4.050-9 9s4.050 9 9 9c4.95 0 9-4.050 9-9s-4.050-9-9-9zM12.9 23.35c-0.25-0.1-0.5-0.25-0.75-0.35v-4.6h0.75v4.95zM15.65 23.95v-7.4h0.75v7.4c-0.1 0-0.25 0-0.35 0-0.2 0-0.3 0-0.4 0zM19.9 22.95c-0.25 0.15-0.5 0.25-0.75 0.35v-8.6h0.75v8.25zM21.65 21.65c-0.25 0.25-0.5 0.45-0.8 0.7v-8.65h-2.75v9.95c-0.25 0.050-0.5 0.1-0.75 0.15v-8.25h-2.75v8.3c-0.25-0.050-0.5-0.1-0.75-0.15v-6.3h-2.75v4.9c-0.25-0.2-0.55-0.45-0.8-0.7-1.45-1.45-2.35-3.45-2.35-5.65s0.9-4.2 2.35-5.65c1.45-1.45 3.45-2.35 5.65-2.35s4.2 0.9 5.65 2.35c1.45 1.45 2.35 3.45 2.35 5.65 0.050 2.25-0.85 4.25-2.3 5.7z"></path>
<path d="M10.372 15.545l8.747-5.248 0.514 0.857-8.746 5.248-0.514-0.857z"></path>
</symbol>
<symbol id="Shopping" viewBox="0 0 32 32">
<path d="M30.726 5.983c-0.316-0.386-0.79-0.611-1.289-0.611h-21.708l-0.74-2.541c-0.34-1.136-1.271-1.997-2.43-2.245l-2.654-0.568c-0.449-0.097-0.891 0.19-0.988 0.639s0.19 0.892 0.64 0.988l2.653 0.569c0.564 0.121 1.019 0.54 1.184 1.094l4.85 16.659c-0.109 0.051-0.215 0.106-0.317 0.167-0.523 0.311-0.942 0.749-1.223 1.259-0.269 0.485-0.412 1.035-0.426 1.602h-0.002v0.086h0.002c0.011 0.443 0.105 0.868 0.269 1.256 0.263 0.62 0.699 1.145 1.248 1.517s1.217 0.59 1.928 0.59h15.598c0.46 0 0.832-0.372 0.832-0.832s-0.372-0.832-0.832-0.832l-15.598-0c-0.248 0-0.481-0.050-0.694-0.14-0.319-0.135-0.593-0.362-0.785-0.647-0.185-0.274-0.294-0.598-0.302-0.952 0.009-0.423 0.144-0.79 0.381-1.084 0.123-0.151 0.274-0.284 0.457-0.394 0.181-0.108 0.395-0.194 0.646-0.248l15.678-2.552c1.024-0.167 1.839-0.95 2.046-1.968l1.918-9.428c0.022-0.109 0.033-0.221 0.033-0.331 0-0.381-0.131-0.753-0.376-1.054zM27.52 16.465c-0.069 0.34-0.341 0.601-0.682 0.656l-14.979 2.439-3.645-12.523h21.225l-1.918 9.428z"></path>
<path d="M13.651 27.799c-0.366-0.247-0.811-0.393-1.284-0.393-0.316 0-0.62 0.064-0.895 0.181-0.413 0.175-0.762 0.465-1.010 0.831-0.248 0.366-0.393 0.811-0.392 1.284-0.001 0.315 0.064 0.619 0.18 0.894 0.175 0.413 0.465 0.762 0.831 1.010 0.366 0.248 0.812 0.393 1.285 0.393 0.315 0 0.619-0.064 0.894-0.181 0.413-0.175 0.762-0.465 1.010-0.831s0.393-0.811 0.393-1.285c0-0.315-0.065-0.619-0.181-0.894-0.175-0.413-0.465-0.763-0.831-1.010zM13.22 30.063c-0.070 0.166-0.188 0.308-0.336 0.408s-0.323 0.158-0.517 0.158c-0.13-0.001-0.25-0.026-0.36-0.073-0.165-0.069-0.308-0.188-0.408-0.335-0.1-0.149-0.158-0.324-0.158-0.518 0.001-0.13 0.027-0.249 0.073-0.36 0.069-0.165 0.188-0.308 0.336-0.408s0.323-0.157 0.517-0.158c0.13 0 0.249 0.026 0.36 0.073 0.166 0.070 0.308 0.188 0.408 0.336s0.158 0.323 0.158 0.517c0 0.13-0.026 0.25-0.072 0.36z"></path>
<path d="M26.246 27.799c-0.366-0.247-0.811-0.393-1.285-0.393-0.315 0-0.619 0.064-0.894 0.181-0.413 0.175-0.762 0.465-1.010 0.831-0.247 0.366-0.393 0.811-0.393 1.284 0 0.315 0.065 0.619 0.181 0.894 0.175 0.413 0.465 0.762 0.831 1.010s0.811 0.393 1.285 0.393c0.315 0 0.619-0.064 0.894-0.181 0.413-0.175 0.762-0.465 1.010-0.831s0.393-0.811 0.393-1.285c0-0.315-0.064-0.619-0.181-0.894-0.175-0.413-0.465-0.763-0.831-1.010zM25.815 30.063c-0.070 0.166-0.188 0.308-0.336 0.408-0.149 0.1-0.324 0.158-0.517 0.158-0.13-0.001-0.25-0.026-0.36-0.073-0.166-0.069-0.308-0.188-0.407-0.335-0.101-0.149-0.158-0.324-0.158-0.518 0-0.13 0.026-0.249 0.072-0.36 0.070-0.165 0.188-0.308 0.336-0.408s0.323-0.157 0.517-0.158c0.13 0 0.25 0.026 0.36 0.073 0.165 0.070 0.308 0.188 0.407 0.336s0.158 0.323 0.158 0.517c-0 0.13-0.026 0.25-0.073 0.36z"></path>
<path d="M13.107 8.876c-0.136-0.467-0.625-0.736-1.093-0.599s-0.735 0.626-0.599 1.093l2.283 7.816c0.137 0.467 0.626 0.735 1.093 0.599 0.467-0.136 0.735-0.626 0.599-1.093l-2.283-7.815z"></path>
<path d="M16.962 8.861c-0.136-0.467-0.625-0.735-1.092-0.6s-0.735 0.626-0.599 1.093l2.117 7.249c0.137 0.468 0.626 0.735 1.093 0.599s0.735-0.626 0.599-1.093l-2.117-7.249z"></path>
<path d="M20.817 8.847c-0.136-0.467-0.626-0.736-1.093-0.599-0.468 0.136-0.735 0.626-0.599 1.092l1.956 6.7c0.136 0.468 0.626 0.735 1.093 0.599s0.735-0.626 0.599-1.093l-1.956-6.7z"></path>
<path d="M24.671 8.831c-0.136-0.467-0.626-0.735-1.093-0.599-0.467 0.137-0.735 0.626-0.599 1.093l1.785 6.113c0.137 0.467 0.626 0.735 1.093 0.599s0.735-0.626 0.599-1.093l-1.785-6.113z"></path>
</symbol>
<symbol id="Money" viewBox="0 0 32 32">
<path d="M31 7h-30c-0.552 0-1 0.448-1 1v0 16c0 0.552 0.448 1 1 1v0h30c0.552 0 1-0.448 1-1v0-16c0-0.552-0.448-1-1-1v0zM25.090 23h-18.18c-0.439-2.515-2.395-4.471-4.874-4.905l-0.036-0.005v-4.18c2.515-0.439 4.471-2.395 4.905-4.874l0.005-0.036h18.18c0.439 2.515 2.395 4.471 4.874 4.905l0.036 0.005v4.18c-2.515 0.439-4.471 2.395-4.905 4.874l-0.005 0.036zM30 11.86c-1.403-0.375-2.485-1.457-2.854-2.832l-0.006-0.028h2.86zM4.86 9c-0.375 1.403-1.457 2.485-2.832 2.854l-0.028 0.006v-2.86zM2 20.14c1.403 0.375 2.485 1.457 2.854 2.832l0.006 0.028h-2.86zM27.14 23c0.375-1.403 1.457-2.485 2.832-2.854l0.028-0.006v2.86z"></path>
<path d="M7.51 0.71c-0.144-0.084-0.316-0.134-0.5-0.134-0.092 0-0.182 0.012-0.267 0.036l0.007-0.002c-0.261 0.069-0.476 0.235-0.607 0.455l-0.003 0.005-2 3.43c-0.084 0.144-0.133 0.316-0.133 0.5 0 0.554 0.449 1.003 1.003 1.003 0.37 0 0.694-0.2 0.867-0.499l0.003-0.005 1.5-2.56 5.070 2.93c0.143 0.084 0.316 0.133 0.5 0.133 0.554 0 1.003-0.449 1.003-1.003 0-0.37-0.2-0.694-0.499-0.867l-0.005-0.003z"></path>
<path d="M24.49 31.29c0.143 0.086 0.315 0.138 0.499 0.14h0.001c0.039 0.007 0.084 0.011 0.13 0.011s0.091-0.004 0.135-0.012l-0.005 0.001c0.261-0.069 0.476-0.235 0.607-0.455l0.003-0.005 2-3.43c0.084-0.143 0.133-0.316 0.133-0.5 0-0.554-0.449-1.003-1.003-1.003-0.37 0-0.694 0.2-0.867 0.499l-0.003 0.005-1.48 2.56-5.070-2.93c-0.143-0.084-0.316-0.133-0.5-0.133-0.554 0-1.003 0.449-1.003 1.003 0 0.37 0.2 0.694 0.499 0.867l0.005 0.003z"></path>
<path d="M16 10c-3.314 0-6 2.686-6 6s2.686 6 6 6c3.314 0 6-2.686 6-6v0c0-3.314-2.686-6-6-6v0zM16 20c-2.209 0-4-1.791-4-4s1.791-4 4-4c2.209 0 4 1.791 4 4v0c0 2.209-1.791 4-4 4v0z"></path>
</symbol>
<symbol id="Cooking" viewBox="0 0 32 32">
<path d="M22.063 5.726c0.279 0 0.505-0.226 0.505-0.505v-4.716c0-0.279-0.226-0.505-0.505-0.505s-0.505 0.226-0.505 0.505v4.716c0 0.279 0.226 0.505 0.505 0.505z"></path>
<path d="M30.484 17.516h-2.675c0.047-0.515-0.124-1.028-0.471-1.412-0.351-0.387-0.851-0.61-1.374-0.61h-2.162c-0.19-0.398-0.596-0.674-1.065-0.674h-3.368c-0.65 0-1.179 0.529-1.179 1.179v3.338c0 0.976 0.718 1.782 1.671 1.874 0.117 0.011 0.235 0.012 0.35 0.001v0.144c0 1.021 0.784 1.848 1.786 1.884 0.509 0.017 0.989-0.166 1.354-0.518s0.566-0.826 0.566-1.333v-4.884h2.048c0.241 0 0.463 0.098 0.624 0.277s0.238 0.409 0.214 0.649l-0.053 0.534c-0 0.003-0.001 0.007-0.001 0.010l-0.66 6.595c-0.251 2.507-2.34 4.398-4.86 4.398h-10.456c-2.52 0-4.609-1.891-4.86-4.398l-0.714-7.139c-0.024-0.24 0.052-0.47 0.214-0.649s0.383-0.277 0.624-0.277h10.637c0.279 0 0.505-0.226 0.505-0.505s-0.226-0.505-0.505-0.505h-10.637c-0.522 0-1.023 0.222-1.374 0.61-0.347 0.383-0.518 0.897-0.471 1.412h-2.675c-0.836-0-1.516 0.68-1.516 1.516v0.674c0 0.836 0.68 1.516 1.516 1.516h1.684c0.279 0 0.505-0.226 0.505-0.505s-0.226-0.505-0.505-0.505h-1.684c-0.279 0-0.505-0.227-0.505-0.505v-0.674c0-0.279 0.227-0.505 0.505-0.505h2.776l0.614 6.144c0.303 3.026 2.824 5.308 5.866 5.308h10.456c3.041 0 5.563-2.282 5.866-5.308l0.614-6.144h2.776c0.279 0 0.505 0.227 0.505 0.505v0.674c0 0.279-0.227 0.505-0.505 0.505h-1.684c-0.279 0-0.505 0.226-0.505 0.505s0.226 0.505 0.505 0.505h1.684c0.836 0 1.516-0.68 1.516-1.516v-0.674c0-0.836-0.68-1.516-1.516-1.516zM22.905 21.39c0 0.231-0.091 0.446-0.257 0.606s-0.384 0.243-0.616 0.235c-0.447-0.016-0.811-0.408-0.811-0.874v-0.823c0-0.181-0.096-0.348-0.253-0.438-0.078-0.045-0.165-0.067-0.252-0.067s-0.175 0.023-0.253 0.068c-0.153 0.089-0.328 0.127-0.504 0.11-0.425-0.041-0.758-0.423-0.758-0.869v-3.338c0-0.093 0.076-0.168 0.168-0.168h3.368c0.093 0 0.168 0.075 0.168 0.168v5.39z"></path>
<path d="M24.084 5.726c0.279 0 0.505-0.226 0.505-0.505v-4.716c0-0.279-0.226-0.505-0.505-0.505s-0.505 0.226-0.505 0.505v4.716c0 0.279 0.226 0.505 0.505 0.505z"></path>
<path d="M28.126 30.989h-24.926c-0.279 0-0.505 0.226-0.505 0.505s0.226 0.505 0.505 0.505h24.926c0.279 0 0.505-0.226 0.505-0.505s-0.226-0.505-0.505-0.505z"></path>
<path d="M5.713 13.538c0.064 0 0.128-0.003 0.192-0.008l20.805-1.82c1.203-0.105 2.096-1.169 1.99-2.372s-1.169-2.096-2.372-1.99l-6.544 0.572-0.073-0.839c-0.089-1.018-0.991-1.773-2.007-1.684l-4.027 0.352c-1.018 0.089-1.773 0.989-1.684 2.007l0.073 0.839-6.543 0.572c-0.583 0.051-1.111 0.326-1.486 0.774s-0.555 1.016-0.504 1.598c0.1 1.138 1.058 1.999 2.18 1.999zM4.812 10.591c0.202-0.241 0.487-0.389 0.8-0.417l7.043-0.616c0.001-0 0.002-0 0.004-0s0.002-0 0.004-0l1.36-0.119c0.278-0.024 0.484-0.269 0.459-0.547s-0.27-0.483-0.547-0.459l-0.861 0.075-0.073-0.839c-0.020-0.224 0.049-0.442 0.194-0.615s0.348-0.278 0.572-0.298l4.027-0.352c0.463-0.040 0.872 0.303 0.912 0.765l0.073 0.839-2.823 0.247c-0.278 0.024-0.484 0.269-0.459 0.547s0.27 0.484 0.547 0.459l10.373-0.908c0.649-0.056 1.221 0.424 1.277 1.072s-0.424 1.221-1.072 1.277l-20.805 1.82c-0.313 0.027-0.619-0.069-0.861-0.271s-0.389-0.487-0.417-0.8c-0.027-0.314 0.069-0.619 0.271-0.861z"></path>
</symbol>
<symbol id="Restaurants" viewBox="0 0 32 32">
<path d="M15.737 7.432c-5.2 0-9.431 4.23-9.431 9.431s4.23 9.431 9.431 9.431c5.202 0 9.434-4.23 9.434-9.431s-4.232-9.431-9.434-9.431zM15.737 25.244c-4.622 0-8.381-3.76-8.381-8.382s3.76-8.382 8.381-8.382c4.623 0 8.385 3.76 8.385 8.382s-3.761 8.382-8.385 8.382z"></path>
<path d="M15.737 10.533c-3.491 0-6.33 2.84-6.33 6.33s2.84 6.33 6.33 6.33c3.491 0 6.33-2.84 6.33-6.33s-2.84-6.33-6.33-6.33zM15.737 22.144c-2.912 0-5.281-2.369-5.281-5.281s2.369-5.281 5.281-5.281 5.281 2.369 5.281 5.281-2.369 5.281-5.281 5.281z"></path>
<path d="M18.953 16.338c-0.29 0-0.525 0.235-0.525 0.525 0 1.484-1.208 2.692-2.692 2.692-1.483 0-2.689-1.208-2.689-2.692 0-0.29-0.235-0.525-0.525-0.525s-0.525 0.235-0.525 0.525c0 2.063 1.677 3.741 3.738 3.741 2.063 0 3.741-1.678 3.741-3.741 0-0.29-0.235-0.525-0.525-0.525z"></path>
<path d="M5.771 4.197c-0.29 0-0.525 0.235-0.525 0.525v5.246h-1.574v-5.246c0-0.29-0.235-0.525-0.525-0.525s-0.525 0.235-0.525 0.525v5.246h-1.574v-5.246c0-0.29-0.235-0.525-0.525-0.525s-0.525 0.235-0.525 0.525v8.918c0 0.683 0.44 1.26 1.049 1.477v11.638c0 0.868 0.706 1.574 1.574 1.574h1.049c0.868 0 1.574-0.706 1.574-1.574v-11.637c0.609-0.217 1.049-0.794 1.049-1.477v-8.918c0-0.29-0.235-0.525-0.525-0.525zM4.197 26.754c0 0.289-0.236 0.525-0.525 0.525h-1.049c-0.289 0-0.525-0.236-0.525-0.525v-0.525h2.098v0.525zM4.197 25.18h-2.098v-5.246h2.098v5.246zM4.197 18.885h-2.098v-1.049h2.098v1.049zM4.197 16.787h-2.098v-1.574h2.098v1.574zM5.246 13.639c0 0.289-0.236 0.525-0.525 0.525h-3.148c-0.289 0-0.525-0.236-0.525-0.525v-2.623h1.574v0.525c0 0.29 0.235 0.525 0.525 0.525s0.525-0.235 0.525-0.525v-0.525h1.574v2.623z"></path>
<path d="M28.328 3.672c-2.059 0-3.672 2.535-3.672 5.771 0 2 0.617 3.729 1.574 4.761v12.55c0 0.868 0.706 1.574 1.574 1.574h1.049c0.868 0 1.574-0.706 1.574-1.574v-12.55c0.957-1.032 1.574-2.761 1.574-4.761 0-3.236-1.613-5.771-3.672-5.771zM29.377 26.754c0 0.289-0.235 0.525-0.525 0.525h-1.049c-0.29 0-0.525-0.236-0.525-0.525v-0.525h2.098v0.525zM29.377 25.18h-2.098v-5.246h2.098v5.246zM29.377 18.885h-2.098v-1.049h2.098v1.049zM29.377 16.787h-2.098v-1.808c0.332 0.151 0.683 0.234 1.049 0.234s0.718-0.083 1.049-0.234v1.808zM29.504 13.639h-2.352c-0.85-0.792-1.447-2.394-1.447-4.197 0-2.559 1.201-4.721 2.623-4.721s2.623 2.162 2.623 4.721c0 1.803-0.598 3.405-1.447 4.197z"></path>
</symbol>
<symbol id="Dreams" viewBox="0 0 32 32">
<path d="M18.688 3.212v5.713c0 0.575 0.825 0.55 0.825 0v-3.287h0.188v3.287c0 0.55 0.825 0.575 0.825 0v-5.713l1.925-1.975c0.337-0.338-0.137-0.825-0.488-0.488l-1.512 1.55h-1.7l-1.525-1.563c-0.337-0.338-0.825 0.137-0.488 0.488l1.95 1.988zM19.587 0.762c0.387 0 0.712 0.325 0.712 0.713s-0.325 0.712-0.712 0.712c-0.387 0-0.712-0.325-0.712-0.712s0.325-0.713 0.712-0.713zM21.6 9.775h-3.975v0.037l-6 13.113-3.088-5.075-8.162 13.475h8.162l-0.012 0.025h14.825l8.125 0.025-9.875-21.6zM9.575 22.075l-1.037-0.863-1.037 0.363-0.050-0.725 1.087-1.825 1.175 1.975-0.137 1.075zM21.738 18.012l-1.825-1.313-2.188 1.725-1.875-2.375 2.438-5.3h2.688l1.9 4.175-1.137 3.087z"></path>
</symbol>
<symbol id="Goals" viewBox="0 0 32 32">
<path d="M16 0c-8.822 0-16 7.178-16 16s7.178 16 16 16 16-7.178 16-16-7.178-16-16-16zM16 29.515c-7.452 0-13.515-6.063-13.515-13.515s6.063-13.515 13.515-13.515 13.515 6.063 13.515 13.515c0 7.452-6.063 13.515-13.515 13.515z"></path>
<path d="M16 6.214c-5.396 0-9.786 4.39-9.786 9.786s4.39 9.786 9.786 9.786c1.821 0 3.528-0.501 4.99-1.371l-0.685-0.71c-0.074 0.173-0.181 0.328-0.318 0.46-0.265 0.256-0.615 0.398-0.985 0.398-0.579-0.002-1.092-0.346-1.311-0.878l-0.22-0.533c-0.475 0.097-0.967 0.149-1.47 0.149-4.026 0-7.301-3.275-7.301-7.301s3.275-7.301 7.301-7.301 7.301 3.275 7.301 7.301c0 0.575-0.067 1.134-0.193 1.671l0.554 0.252c0.524 0.239 0.85 0.764 0.83 1.339-0.019 0.569-0.373 1.069-0.903 1.275l0.675 0.7c0.963-1.515 1.522-3.312 1.522-5.236 0-5.396-4.39-9.786-9.786-9.786z"></path>
<path d="M16.065 14.606c0.203 0 0.401 0.043 0.586 0.127l2.291 1.042c-0.115-1.525-1.388-2.727-2.942-2.727-1.63 0-2.951 1.321-2.951 2.951 0 1.54 1.179 2.803 2.683 2.939l-0.979-2.372c-0.224-0.542-0.095-1.155 0.327-1.562 0.265-0.256 0.615-0.398 0.985-0.398z"></path>
<path d="M21.626 20.073l1.642-0.621c0.096-0.037 0.16-0.127 0.164-0.229s-0.055-0.197-0.148-0.239l-7.010-3.189c-0.095-0.043-0.206-0.024-0.281 0.049s-0.098 0.183-0.058 0.279l2.937 7.119c0.039 0.095 0.131 0.157 0.234 0.157 0.067 0 0.131-0.026 0.177-0.071 0.024-0.024 0.044-0.052 0.058-0.084l0.679-1.619 2.522 2.614c0.097 0.101 0.258 0.104 0.359 0.006l1.242-1.199c0.101-0.097 0.104-0.258 0.006-0.359l-2.522-2.613z"></path>
</symbol>
<symbol id="Love" viewBox="0 0 32 32">
<path d="M22 4c-2.393 0-4.534 1.056-6 2.721-1.466-1.665-3.607-2.721-6-2.721-4.418 0-8 3.582-8 8 0 6.11 6.452 11.298 10.596 14 1.285 0.838 2.349 1.437 2.929 1.75 0.299 0.161 0.652 0.161 0.951 0 0.579-0.313 1.643-0.912 2.928-1.75 4.143-2.701 10.596-7.89 10.596-14 0-4.418-3.582-8-8-8zM16 26.869c-2.336-1.268-13-7.463-13-14.869 0-3.86 3.14-7 7-7 2.003 0 3.917 0.868 5.25 2.382l0.75 0.852 0.75-0.852c1.333-1.514 3.247-2.382 5.25-2.382 3.86 0 7 3.14 7 7 0 7.406-10.664 13.601-13 14.869zM8 8c-1.105 0-2 0.895-2 2s0.895 2 2 2c1.105 0 2-0.895 2-2s-0.895-2-2-2zM8 11c-0.551 0-1-0.449-1-1s0.449-1 1-1 1 0.449 1 1-0.449 1-1 1z"></path>
</symbol>
<symbol id="Crime" viewBox="0 0 32 32">
<path d="M29.939 11.52l0.346-0.703h-5.903c-0.009-0.051-0.021-0.117-0.037-0.202-0.114-0.61-0.386-2.061-0.675-3.6v-0.001c-0.19-1.012-0.389-2.061-0.555-2.938-0.083-0.438-0.158-0.832-0.221-1.156s-0.112-0.578-0.145-0.736c-0.035-0.168-0.087-0.328-0.153-0.48-0.067-0.152-0.149-0.297-0.245-0.43-0.285-0.404-0.682-0.72-1.135-0.938s-0.966-0.336-1.496-0.336c-0.324 0-0.654 0.045-0.98 0.141-0.325 0.095-0.645 0.242-0.948 0.443-0.384 0.257-0.738 0.389-1.043 0.461-0.153 0.035-0.294 0.056-0.419 0.066-0.125 0.012-0.234 0.014-0.33 0.014-0.092 0-0.17 0.004-0.245 0.004-0.081 0-0.157-0.004-0.243-0.015-0.129-0.017-0.285-0.050-0.498-0.132-0.215-0.080-0.484-0.209-0.826-0.412-0.618-0.367-1.289-0.533-1.93-0.533-0.352 0-0.694 0.051-1.018 0.146-0.484 0.143-0.926 0.387-1.277 0.726-0.176 0.169-0.328 0.36-0.449 0.575s-0.212 0.448-0.263 0.699h0.001c-0.033 0.158-0.082 0.412-0.145 0.736-0.188 0.973-0.491 2.576-0.777 4.095-0.289 1.539-0.56 2.989-0.674 3.6-0.016 0.085-0.029 0.151-0.038 0.202h-5.903l0.346 0.703c0.018 0.035 0.188 0.372 0.615 0.857 0.639 0.729 1.856 1.789 3.969 2.661 0.604 0.248 1.281 0.481 2.037 0.688v0.26l2.318 2.68c0 0 2.682 0.508 2.899 0.436s2.101-1.957 2.101-1.957 1.885 1.885 2.102 1.957 2.898-0.436 2.898-0.436l2.318-2.68v-0.26c2.524-0.689 4.155-1.68 5.164-2.529 1.061-0.893 1.433-1.627 1.457-1.678zM9.291 7.195c0.189-1.012 0.389-2.063 0.554-2.937 0.083-0.438 0.159-0.831 0.221-1.153s0.112-0.576 0.144-0.728v0c0.039-0.195 0.118-0.372 0.232-0.535 0.172-0.242 0.428-0.451 0.742-0.598s0.686-0.23 1.074-0.23c0.473 0 0.969 0.122 1.432 0.395 0.506 0.301 0.904 0.477 1.242 0.576 0.168 0.049 0.321 0.080 0.459 0.098s0.26 0.022 0.364 0.022c0.098 0 0.179-0.004 0.245-0.004 0.111 0 0.254-0.003 0.418-0.018 0.246-0.022 0.543-0.070 0.869-0.176s0.682-0.268 1.047-0.512c0.22-0.147 0.449-0.252 0.682-0.32s0.471-0.1 0.705-0.1c0.254 0 0.506 0.039 0.738 0.11 0.351 0.106 0.661 0.288 0.893 0.513 0.114 0.111 0.211 0.234 0.285 0.365s0.127 0.268 0.156 0.412v0c0.031 0.152 0.080 0.405 0.143 0.728 0.186 0.968 0.49 2.571 0.774 4.089 0.038 0.201 0.075 0.399 0.112 0.597h-13.644c0.037-0.197 0.074-0.396 0.112-0.596zM24.711 14.244c-1.967 0.766-4.77 1.373-8.711 1.373-2.751 0-4.947-0.297-6.691-0.736-2.616-0.658-4.217-1.637-5.161-2.431-0.285-0.239-0.51-0.464-0.685-0.657h25.075c-0.034 0.037-0.069 0.076-0.106 0.115-0.617 0.648-1.754 1.57-3.721 2.336z"></path>
<path d="M5.891 21.57c0.364-0.384 0.686-0.677 0.914-0.873 0.113-0.097 0.204-0.17 0.265-0.219 0.030-0.023 0.054-0.041 0.069-0.053 0.007-0.005 0.013-0.009 0.016-0.012l0.003-0.002h0.001l-0.006-0.007-0.002-0.003-0.568-0.78c-0.018 0.014-0.618 0.452-1.4 1.276s-1.746 2.037-2.482 3.602l-0.197 0.418 3.063 1.652c-0.465 0.345-1.129 0.862-1.832 1.485-0.648 0.575-1.327 1.241-1.912 1.952-0.291 0.355-0.559 0.721-0.787 1.096-0.178 0.294-0.332 0.593-0.451 0.897h1.070c0.063-0.129 0.136-0.259 0.216-0.389 0.346-0.57 0.825-1.157 1.351-1.709 0.789-0.829 1.678-1.58 2.366-2.12 0.345-0.27 0.64-0.488 0.848-0.638 0.104-0.074 0.186-0.132 0.242-0.172 0.028-0.020 0.049-0.033 0.063-0.043 0.007-0.005 0.013-0.008 0.016-0.011l0.004-0.003h0.001l0.668-0.451-3.638-1.963c0.647-1.246 1.444-2.237 2.103-2.932z"></path>
<path d="M30.967 31.104c-0.398-0.656-0.92-1.287-1.479-1.875-0.837-0.879-1.757-1.654-2.471-2.215-0.215-0.169-0.412-0.318-0.582-0.443l3.063-1.652-0.196-0.418c-0.737-1.564-1.701-2.776-2.483-3.602s-1.383-1.263-1.401-1.276l-0.574 0.79c0.017 0.013 0.579 0.427 1.302 1.195 0.65 0.691 1.432 1.67 2.068 2.895l-3.639 1.963 0.669 0.451c0.003 0.002 0.291 0.197 0.733 0.529s1.037 0.802 1.656 1.354c0.621 0.551 1.264 1.184 1.799 1.836 0.267 0.326 0.506 0.656 0.703 0.98 0.078 0.129 0.15 0.258 0.215 0.385h1.068c-0.119-0.304-0.273-0.603-0.451-0.897z"></path>
<path d="M14.744 26.123h2.512v1.775h-2.512v-1.775z"></path>
<path d="M15.029 28.832l-0.39 3.168h2.722l-0.39-3.168z"></path>
</symbol>
<symbol id="Beauty" viewBox="0 0 32 32">
<path d="M21.75 14.435c0.048-0.36 0.073-0.729 0.073-1.095 0-4.499-3.66-8.158-8.159-8.158s-8.158 3.66-8.158 8.158 3.66 8.158 8.158 8.158c0.412 0 0.747 0.334 0.747 0.747s-0.334 0.747-0.747 0.747c-5.322 0-9.652-4.33-9.652-9.652s4.33-9.652 9.652-9.652c5.322 0 9.652 4.33 9.652 9.652 0 0.433-0.029 0.868-0.086 1.294-0.055 0.409-0.431 0.695-0.839 0.641s-0.695-0.431-0.641-0.839zM15.726 29.679h-1.316v-3.745c0-0.412-0.334-0.747-0.747-0.747-6.533 0-11.847-5.314-11.847-11.847s5.314-11.847 11.847-11.847c6.533 0 11.847 5.315 11.847 11.847 0 1.214-0.183 2.41-0.543 3.555-0.124 0.393 0.095 0.812 0.488 0.936s0.812-0.095 0.936-0.488c0.406-1.291 0.611-2.637 0.611-4.003 0-7.356-5.984-13.34-13.34-13.34s-13.34 5.984-13.34 13.34c0 7.105 5.584 12.931 12.594 13.32v3.019h-2.816c-0.412 0-0.747 0.334-0.747 0.747s0.334 0.747 0.747 0.747h3.546c0.006 0 0.012 0 0.017 0s0.012-0 0.017-0h2.045c0.412 0 0.747-0.334 0.747-0.747s-0.334-0.747-0.747-0.747zM16.865 17.287c0.191 0 0.382-0.073 0.528-0.219 0.292-0.292 0.292-0.764 0-1.056l-6.401-6.401c-0.292-0.292-0.764-0.291-1.056 0s-0.292 0.764 0 1.056l6.401 6.401c0.146 0.146 0.337 0.219 0.528 0.219zM10.018 13.903c-0.292 0.292-0.292 0.764 0 1.056l3.521 3.521c0.146 0.146 0.337 0.219 0.528 0.219s0.382-0.073 0.528-0.219c0.292-0.292 0.292-0.764 0-1.056l-3.521-3.521c-0.292-0.291-0.764-0.291-1.056 0zM27.936 30.195c-1.64 1.197-3.541 1.805-5.377 1.805-1.325 0-2.616-0.317-3.75-0.958l-0.289 0.211c-0.333 0.243-0.8 0.17-1.043-0.163s-0.17-0.8 0.163-1.043l0.289-0.211c-0.028-0.133-0.051-0.266-0.071-0.4-1.805-1.581-2.652-4.137-2.218-6.752 0.512-3.087 2.706-5.508 5.46-6.026 0.173-0.033 0.352-0.003 0.505 0.084 1.238 0.7 2.203 1.831 2.773 3.232 2.331-0.702 4.796-0.428 6.719 0.86 0.146 0.098 0.253 0.245 0.302 0.414 0.913 3.174-0.478 6.77-3.463 8.948zM19.481 23.416l0.446-2.688c0.068-0.407 0.452-0.682 0.859-0.614 0.365 0.061 0.625 0.377 0.625 0.736 0 0.041-0.003 0.082-0.010 0.123l-0.098 0.592c0.072-0.055 0.144-0.11 0.217-0.163 0.47-0.343 0.962-0.638 1.468-0.884-0.406-0.989-1.057-1.798-1.881-2.334-2.013 0.508-3.601 2.378-3.994 4.744-0.251 1.514 0.043 3.035 0.764 4.223 0.212-1.315 0.763-2.601 1.605-3.735zM30.033 21.926c-1.669-1.002-3.806-1.098-5.784-0.332-0.036 0.018-0.073 0.033-0.113 0.045-0.601 0.244-1.186 0.567-1.737 0.97-0.611 0.446-1.142 0.96-1.585 1.521-0.023 0.036-0.050 0.070-0.079 0.102-1.052 1.379-1.576 3.024-1.445 4.611l7.548-5.508c0.333-0.243 0.8-0.17 1.043 0.163s0.17 0.8-0.163 1.043l-7.548 5.508c2.112 0.875 4.75 0.498 6.884-1.059 2.395-1.748 3.567-4.554 2.978-7.063zM15.747 12.067c0.191 0 0.382-0.073 0.528-0.219 0.292-0.292 0.292-0.764 0-1.056l-2.6-2.6c-0.292-0.292-0.764-0.292-1.056 0s-0.292 0.764 0 1.056l2.6 2.6c0.146 0.146 0.337 0.219 0.528 0.219z"></path>
</symbol>
<symbol id="Time" viewBox="0 0 32 32">
<path d="M19.743 14.447l5.172-7.196c0.447-0.621 0.69-1.361 0.69-2.121v-2.248h1.494v-2.883h-22.198v2.883h1.495v2.248c0 0.759 0.243 1.499 0.69 2.121l5.172 7.196c0.185 0.258 0.28 0.554 0.28 0.854v1.398c-0.001 0.3-0.095 0.596-0.28 0.854l-5.172 7.196c-0.447 0.621-0.69 1.361-0.69 2.12v2.248h-1.495v2.883h22.198v-2.883h-1.494v-2.248c0-0.758-0.243-1.498-0.69-2.12l-5.172-7.196c-0.185-0.259-0.28-0.554-0.28-0.854v-1.398c0-0.3 0.095-0.596 0.28-0.854zM24.163 28.829h-16.326v-1.96c0-0.452 0.143-0.895 0.418-1.279l5.172-7.196c0.357-0.496 0.552-1.088 0.552-1.695v-1.398c0-0.607-0.195-1.2-0.552-1.695l-5.171-7.196c-0.276-0.385-0.419-0.827-0.419-1.279v-1.959h16.326v1.959c-0.001 0.452-0.143 0.895-0.419 1.279l-5.172 7.196c-0.356 0.495-0.551 1.088-0.551 1.695v1.398c0 0.607 0.195 1.199 0.551 1.695l5.173 7.196c0.275 0.384 0.418 0.827 0.419 1.279v1.96z"></path>
<path d="M14.767 14.558h2.467c0.105-0.52 0.318-1.015 0.636-1.457l3.718-5.173h-11.176l3.718 5.173c0.318 0.442 0.531 0.938 0.636 1.457z"></path>
<path d="M15.422 23.849l-4.114 4.114h9.383l-4.114-4.114c-0.319-0.319-0.836-0.319-1.156 0z"></path>
<path d="M15.977 15.5c-0.355 0-0.644 0.288-0.644 0.645s0.288 0.644 0.644 0.644 0.644-0.288 0.644-0.644c0-0.356-0.289-0.645-0.644-0.645z"></path>
<path d="M15.977 18.095c-0.355 0-0.644 0.288-0.644 0.644s0.288 0.645 0.644 0.645 0.644-0.288 0.644-0.645c0-0.355-0.289-0.644-0.644-0.644z"></path>
<path d="M15.977 20.765c-0.355 0-0.644 0.288-0.644 0.644s0.288 0.645 0.644 0.645 0.644-0.289 0.644-0.645c0-0.356-0.289-0.644-0.644-0.644z"></path>
</symbol>
<symbol id="Motivation" viewBox="0 0 32 32">
<path d="M22.292 22.369l-3.152-0.728v-1.316c0.765-0.687 1.304-1.617 1.492-2.67 1.36-1.085 2.171-2.749 2.171-4.493v-1.983c0-0.814-0.581-1.493-1.351-1.647-1.288-2.259-3.842-3.498-6.447-3.095-0.378 0.058-0.744 0.156-1.098 0.282v-4.317l2.093-1.196 2.093 1.196v3.434h1.047v-2.836l0.264 0.151 0.519-0.908-3.923-2.241-3.923 2.241 0.519 0.908 0.264-0.151v4.21c-1.674 0.983-2.878 2.727-3.099 4.708-0.198 1.772 0.363 3.525 1.53 4.854v0.053c0 1.39 0.609 2.638 1.57 3.5v1.316l-3.152 0.728c-2.15 0.496-3.651 2.383-3.651 4.589v5.042h19.885v-5.042c0-2.206-1.501-4.093-3.651-4.589zM19.878 22.886l-1.42 2.13-1.543-0.926 1.831-1.465 1.132 0.261zM16 23.48l-2.093-1.675v-0.768c0.632 0.316 1.341 0.497 2.093 0.497s1.462-0.182 2.093-0.497v0.768l-2.093 1.675zM11.29 12.891v2.008c-0.423-0.88-0.601-1.869-0.489-2.866 0.256-2.294 2.091-4.213 4.363-4.564 2.257-0.348 4.461 0.774 5.492 2.79l0.147 0.285h0.32c0.35 0 0.634 0.284 0.634 0.633v1.983c0 1.080-0.381 2.122-1.047 2.952l-0.003-3.21-0.723 0.299c-0.012 0.005-1.2 0.482-3.983 0.482s-3.972-0.477-3.98-0.481l-0.729-0.312zM12.337 16.824v-2.442c0.684 0.16 1.872 0.348 3.663 0.348s2.979-0.189 3.663-0.348v2.442c0 2.019-1.644 3.663-3.663 3.663s-3.663-1.644-3.663-3.663zM13.254 22.625l1.831 1.465-1.543 0.926-1.42-2.13 1.132-0.261zM13.962 30.953h-3.718v-2.616h-1.047v2.616h-2.093v-3.996c0-1.716 1.167-3.184 2.839-3.569l1.089-0.251 2.193 3.288 0.623-0.374 0.565 0.847-0.451 4.055zM16.985 30.953h-1.97l0.48-4.318-0.748-1.122 1.253-0.752 1.254 0.752-0.748 1.122 0.48 4.318zM24.896 30.953h-2.093v-2.616h-1.047v2.616h-3.718l-0.451-4.055 0.565-0.847 0.623 0.374 2.193-3.288 1.089 0.251c1.672 0.385 2.839 1.853 2.839 3.569v3.996z"></path>
<path d="M6.057 22.581h1.047v1.047h-1.047v-1.047z"></path>
<path d="M6.057 2.401v19.133h1.047v-18.535l0.264 0.151 0.519-0.908-3.923-2.241-3.923 2.241 0.519 0.908 0.264-0.151v29.001h1.047v-29.599l2.093-1.196z"></path>
<path d="M3.441 2.696h1.047v25.118h-1.047v-25.118z"></path>
<path d="M30.129 30.953h1.047v1.047h-1.047v-1.047z"></path>
<path d="M24.896 21.534h1.047v1.047h-1.047v-1.047z"></path>
<path d="M28.036 5.756l-3.923 2.241 0.519 0.908 0.264-0.151v11.732h1.047v-12.33l2.093-1.196 2.093 1.196v21.75h1.047v-21.152l0.264 0.151 0.519-0.908z"></path>
<path d="M27.512 8.452h1.047v19.362h-1.047v-19.362z"></path>
<path d="M15.477 2.696h1.047v2.616h-1.047v-2.616z"></path>
<path d="M3.441 28.86h1.047v1.047h-1.047v-1.047z"></path>
<path d="M3.441 30.953h1.047v1.047h-1.047v-1.047z"></path>
<path d="M27.512 28.86h1.047v3.14h-1.047v-3.14z"></path>
</symbol>
<symbol id="Risk" viewBox="0 0 32 32">
<path d="M16 12h4v4h-4v-4z"></path>
<path d="M24 12h4v4h-4v-4z"></path>
<path d="M24 4h4v4h-4v-4z"></path>
<path d="M16 4h4v4h-4v-4z"></path>
<path d="M20 32h-20v-20h12v2.667h-9.333v14.667h14.667v-9.333h-5.333v-20h20v20h-12v12zM14.667 17.333h14.667v-14.667h-14.667v14.667z"></path>
<path d="M12 24h4v4h-4v-4z"></path>
<path d="M4 16h4v4h-4v-4z"></path>
</symbol>
<symbol id="Movies" viewBox="0 0 32 32">
<path d="M30 28l-6-5v-3l6-4v12zM19 14.012c-2.768 0-5.011-2.244-5.011-5.012s2.243-5.011 5.011-5.011c2.768 0 5.011 2.243 5.011 5.011s-2.243 5.012-5.011 5.012v0zM22 26c0 1.104-0.896 2-2 2h-16c-1.104 0-2-0.896-2-2v-8c0-1.104 0.896-2 2-2h16c1.104 0 2 0.896 2 2v8zM2 10c0-2.209 1.791-4 4-4s4 1.791 4 4c0 2.209-1.791 4-4 4s-4-1.791-4-4v0zM30 14l-6 4c0-1.214-0.552-2.288-1.406-3.021 2.032-1.226 3.406-3.433 3.406-5.979 0-3.866-3.134-7-7-7s-7 3.134-7 7c0 1.962 0.812 3.729 2.111 5h-3.668c0.957-1.063 1.557-2.456 1.557-4 0-3.313-2.687-6-6-6s-6 2.687-6 6c0 1.809 0.816 3.41 2.082 4.511-1.235 0.68-2.082 1.979-2.082 3.489v8c0 2.209 1.791 4 4 4h16c2.209 0 4-1.791 4-4v-1l6 5c1.104 0 2-0.896 2-2v-12c0-1.104-0.896-2-2-2v0z"></path>
</symbol>
<symbol id="Television" viewBox="0 0 32 32">
<path d="M0 2.449v20.571h13.551v3.2h-2.122v0.98h9.143v-0.98h-2.122v-3.2h5.061v4.735c0 0.99 0.806 1.796 1.796 1.796h3.265c0.99 0 1.796-0.806 1.796-1.796v-4.735h1.633v-20.571h-32zM17.469 26.22h-2.939v-3.2h2.939v3.2zM29.388 27.755c0 0.45-0.366 0.816-0.816 0.816h-3.265c-0.45 0-0.816-0.366-0.816-0.816v-12.963h4.898v12.963zM31.020 22.041h-0.653v-8.229h-6.857v8.229h-22.531v-18.612h30.041v18.612z"></path>
<path d="M1.959 4.408v16.653h20.735v-0.98h-19.755v-14.694h13.649l-6.091 6.091 0.693 0.693 6.783-6.783h2.069l-6.091 6.091 0.693 0.693 6.783-6.783h7.634v7.608h0.98v-8.588z"></path>
<path d="M25.404 20.735h0.98v0.98h-0.98v-0.98z"></path>
<path d="M27.69 20.735h0.98v0.98h-0.98v-0.98z"></path>
<path d="M25.404 18.776h0.98v0.98h-0.98v-0.98z"></path>
<path d="M27.69 18.776h0.98v0.98h-0.98v-0.98z"></path>
<path d="M25.404 16.816h0.98v0.98h-0.98v-0.98z"></path>
<path d="M27.69 16.816h0.98v0.98h-0.98v-0.98z"></path>
</symbol>
<symbol id="Music" viewBox="0 0 32 32">
<path d="M25.92 28.48c1.407 0 2.56-1.153 2.56-2.56v-19.84c0-1.407-1.153-2.56-2.56-2.56h-19.84c-1.407 0-2.56 1.153-2.56 2.56v19.84c0 1.407 1.153 2.56 2.56 2.56h19.84zM25.92 29.76h-19.84c-2.113 0-3.84-1.727-3.84-3.84v-19.84c0-2.113 1.727-3.84 3.84-3.84h19.84c2.113 0 3.84 1.727 3.84 3.84v19.84c0 2.113-1.727 3.84-3.84 3.84z"></path>
<path d="M11.4 22.653c0-1.149-0.931-2.080-2.080-2.080s-2.080 0.931-2.080 2.080 0.931 2.080 2.080 2.080c1.149 0 2.080-0.931 2.080-2.080zM12.68 22.653c0 1.856-1.504 3.36-3.36 3.36s-3.36-1.504-3.36-3.36 1.504-3.36 3.36-3.36c1.856 0 3.36 1.504 3.36 3.36z"></path>
<path d="M12.68 22.493v-12.667c0-0.353-0.287-0.64-0.64-0.64s-0.64 0.287-0.64 0.64v12.667c0 0.353 0.287 0.64 0.64 0.64s0.64-0.287 0.64-0.64zM22.227 19.453c0-1.149-0.931-2.080-2.080-2.080s-2.080 0.931-2.080 2.080 0.931 2.080 2.080 2.080c1.149 0 2.080-0.931 2.080-2.080zM23.507 19.453c0 1.856-1.504 3.36-3.36 3.36s-3.36-1.504-3.36-3.36 1.504-3.36 3.36-3.36c1.856 0 3.36 1.504 3.36 3.36z"></path>
<path d="M23.507 19.293v-12.667c0-0.353-0.287-0.64-0.64-0.64s-0.64 0.287-0.64 0.64v12.667c0 0.353 0.287 0.64 0.64 0.64s0.64-0.287 0.64-0.64z"></path>
<path d="M12.221 10.44l10.827-3.2c0.339-0.1 0.533-0.456 0.432-0.795s-0.456-0.533-0.795-0.432l-10.827 3.2c-0.339 0.1-0.533 0.456-0.432 0.795s0.456 0.533 0.795 0.432zM12.221 14.266l10.827-3.2c0.339-0.1 0.533-0.456 0.432-0.795s-0.456-0.533-0.795-0.432l-10.827 3.2c-0.339 0.1-0.533 0.456-0.432 0.795s0.456 0.533 0.795 0.432z"></path>
</symbol>
<symbol id="Sleep" viewBox="0 0 32 32">
<path d="M17.011 7.41c-1.207 0-2.189 0.982-2.189 2.189s0.982 2.19 2.189 2.19c1.207 0 2.189-0.982 2.189-2.189s-0.982-2.189-2.189-2.189zM17.011 10.779c-0.65 0-1.179-0.529-1.179-1.179s0.529-1.179 1.179-1.179c0.65 0 1.179 0.529 1.179 1.179s-0.529 1.179-1.179 1.179z"></path>
<path d="M7.856 2.223c0.843-0.782 1.941-1.213 3.092-1.213h2.695c2.507 0 4.547 2.040 4.547 4.547 0 0.306-0.031 0.613-0.091 0.91-0.055 0.273 0.121 0.54 0.395 0.596 0.034 0.007 0.068 0.010 0.101 0.010 0.235 0 0.446-0.165 0.495-0.405 0.074-0.363 0.111-0.737 0.111-1.111-0-3.065-2.493-5.558-5.558-5.558h-2.695c-1.406 0-2.748 0.526-3.779 1.482-0.205 0.19-0.217 0.51-0.027 0.714s0.509 0.217 0.714 0.027z"></path>
<path d="M13.586 3.457c0.14-0.094 0.224-0.251 0.224-0.42s-0.084-0.326-0.224-0.42c-0.583-0.39-1.262-0.596-1.965-0.596-1.95 0-3.537 1.587-3.537 3.537s1.587 3.537 3.537 3.537c0.703 0 1.383-0.206 1.965-0.596 0.14-0.094 0.224-0.251 0.224-0.42s-0.084-0.326-0.224-0.42c-0.703-0.471-1.123-1.256-1.123-2.101s0.42-1.63 1.123-2.101zM12.396 7.963c-0.248 0.080-0.509 0.121-0.775 0.121-1.393 0-2.526-1.133-2.526-2.526s1.133-2.526 2.526-2.526c0.266 0 0.527 0.041 0.775 0.121-0.601 0.647-0.944 1.502-0.944 2.405s0.343 1.758 0.944 2.405z"></path>
<path d="M32 18.021v-0.674c0-1.764-1.436-3.2-3.2-3.2h-4.924c-0.243-1.525-1.567-2.695-3.16-2.695-1.764 0-3.2 1.436-3.2 3.2 0 0.535 0.134 1.055 0.382 1.516h-16.045c-1.022 0-1.853 0.831-1.853 1.853v4.716c0 1.022 0.831 1.853 1.853 1.853h18.189c1.021 0 1.853-0.831 1.853-1.853v-1.516h4.21c0.279 0 0.505-0.226 0.505-0.505s-0.226-0.505-0.505-0.505h-4.21v-2.189c0-0.753-0.451-1.402-1.098-1.692 0.371-0.708 1.112-1.171 1.94-1.171h6.063c1.207 0 2.189 0.982 2.189 2.19v0.674c0 1.207-0.982 2.189-2.189 2.189h-0.674c-0.279 0-0.505 0.226-0.505 0.505s0.226 0.505 0.505 0.505h2.021c0.464 0 0.842 0.378 0.842 0.842v0.842h-6.905c-0.279 0-0.505 0.226-0.505 0.505s0.226 0.505 0.505 0.505h6.905v2.189c0 0.464-0.378 0.842-0.842 0.842h-4.042c-0.279 0-0.505 0.226-0.505 0.505s0.226 0.505 0.505 0.505h0.168v2.189c0 0.464-0.378 0.842-0.842 0.842h-1.347c-0.464 0-0.842-0.378-0.842-0.842v-2.189h0.842c0.279 0 0.505-0.226 0.505-0.505s-0.226-0.505-0.505-0.505h-14.147c-0.279 0-0.505 0.226-0.505 0.505s0.226 0.505 0.505 0.505h0.168v2.189c0 0.464-0.378 0.842-0.842 0.842h-1.347c-0.464 0-0.842-0.378-0.842-0.842v-2.189h0.842c0.279 0 0.505-0.226 0.505-0.505s-0.226-0.505-0.505-0.505h-4.716c-0.464 0-0.842-0.378-0.842-0.842 0-0.279-0.226-0.505-0.505-0.505s-0.505 0.226-0.505 0.505c0 1.022 0.831 1.853 1.853 1.853h2.863v2.189c0 0.303 0.073 0.589 0.203 0.842h-5.761c-0.279 0-0.505 0.226-0.505 0.505s0.226 0.505 0.505 0.505h18.189c0.279 0 0.505-0.226 0.505-0.505s-0.226-0.505-0.505-0.505h-7.782c0.13-0.253 0.203-0.539 0.203-0.842v-2.189h11.116v2.189c0 0.303 0.073 0.589 0.203 0.842h-1.718c-0.279 0-0.505 0.226-0.505 0.505s0.226 0.505 0.505 0.505h10.779c0.279 0 0.505-0.226 0.505-0.505s-0.226-0.505-0.505-0.505h-4.413c0.13-0.253 0.203-0.539 0.203-0.842v-2.189h2.863c1.021 0 1.853-0.831 1.853-1.853v-4.042c0-0.735-0.431-1.372-1.053-1.671 0.647-0.586 1.053-1.432 1.053-2.371zM20.884 18.021v4.716c0 0.464-0.378 0.842-0.842 0.842h-4.21v-4.884c0-0.279-0.226-0.505-0.505-0.505s-0.505 0.226-0.505 0.505v4.884h-12.968c-0.464 0-0.842-0.378-0.842-0.842v-4.716c0-0.464 0.378-0.842 0.842-0.842h17.070c0.007 0 0.014 0 0.021 0h1.099c0.464 0 0.842 0.378 0.842 0.842zM22.737 14.147c-1.326 0-2.499 0.814-2.976 2.021h-0.625c-0.389-0.406-0.61-0.949-0.61-1.516 0-1.207 0.982-2.189 2.189-2.189 1.033 0 1.902 0.72 2.131 1.684h-0.11z"></path>
<path d="M10.947 11.116h2.695c0.279 0 0.505-0.226 0.505-0.505s-0.226-0.505-0.505-0.505h-2.695c-2.507 0-4.547-2.040-4.547-4.547 0-0.739 0.181-1.473 0.524-2.122 0.13-0.247 0.036-0.552-0.211-0.683s-0.552-0.036-0.683 0.211c-0.42 0.794-0.641 1.691-0.641 2.594 0 3.065 2.493 5.558 5.558 5.558z"></path>
</symbol>
<symbol id="Sports" viewBox="0 0 32 32">
<path d="M25.915 32h-3.728c-0.433 0-0.783-0.351-0.783-0.783v-2.983h-10.807v2.983c0 0.433-0.351 0.783-0.783 0.783h-3.728c-0.433 0-0.783-0.351-0.783-0.783v-0.679h-2.945c-0.433 0-0.783-0.351-0.783-0.783v-7.82c0-0.433 0.351-0.783 0.783-0.783h2.945v-0.679c0-0.433 0.351-0.783 0.783-0.783h3.728c0.433 0 0.783 0.351 0.783 0.783v2.983h10.807v-2.983c0-0.433 0.351-0.783 0.783-0.783h3.728c0.433 0 0.783 0.351 0.783 0.783v0.679h2.945c0.433 0 0.783 0.351 0.783 0.783v7.82c0 0.433-0.351 0.783-0.783 0.783h-2.945v0.679c0 0.433-0.351 0.783-0.783 0.783zM22.97 30.433h2.162v-9.179h-2.162v9.179zM6.868 30.433h2.162v-9.179h-2.162v9.179zM26.698 28.971h2.161v-6.254h-2.161v6.254zM3.14 28.971h2.161v-6.254h-2.161v6.254zM10.596 26.668h10.807v-1.647h-10.807v1.647zM14.24 21.87c-0.13 0-0.262-0.032-0.384-0.101-0.377-0.212-0.51-0.69-0.298-1.067 1.397-2.478 3.284-4.573 5.504-6.186-0.969-1.342-2.075-2.563-3.298-3.645-3.037 3.27-7.182 5.473-11.787 6.031 0.102 0.412 0.225 0.819 0.37 1.221 0.147 0.407-0.064 0.856-0.471 1.003s-0.856-0.064-1.003-0.471c-0.545-1.51-0.822-3.094-0.822-4.707 0-7.691 6.257-13.948 13.948-13.948s13.948 6.257 13.948 13.948c0 1.388-0.206 2.761-0.612 4.081-0.127 0.413-0.566 0.645-0.979 0.518s-0.645-0.566-0.518-0.979c0.36-1.17 0.543-2.388 0.543-3.62 0-0.477-0.027-0.947-0.080-1.41-2.533 0.293-4.935 1.128-7.066 2.415 0.461 0.735 0.883 1.493 1.26 2.272 0.189 0.389 0.026 0.858-0.363 1.046s-0.858 0.026-1.047-0.363c-0.35-0.721-0.734-1.418-1.151-2.089-2.020 1.477-3.738 3.392-5.012 5.653-0.144 0.255-0.41 0.399-0.683 0.399zM6.521 5.991c-1.81 2.153-2.902 4.93-2.902 7.957 0 0.473 0.027 0.944 0.080 1.41 4.235-0.491 8.051-2.495 10.855-5.484-2.359-1.807-5.080-3.136-8.033-3.883zM16.774 9.692c1.334 1.18 2.539 2.513 3.584 3.96 2.31-1.408 4.917-2.326 7.667-2.659-0.978-3.978-3.884-7.207-7.666-8.635-0.668 2.726-1.911 5.213-3.585 7.334zM7.766 4.709c2.808 0.828 5.474 2.189 7.801 3.986 1.544-1.964 2.686-4.269 3.292-6.795-0.918-0.218-1.875-0.333-2.859-0.333-3.159 0-6.044 1.189-8.234 3.142z"></path>
</symbol>
<symbol id="Food" viewBox="0 0 32 32">
<path d="M17.282 24.37h-12.925c-0.793 0-1.436 0.512-1.436 1.144v0.034c0 0.632 0.643 1.143 1.436 1.143h12.925c0.793 0 1.436-0.512 1.436-1.143v-0.034c-0-0.632-0.643-1.144-1.436-1.144z"></path>
<path d="M6.118 17.741c-0.228 0-0.412 0.185-0.412 0.412s0.184 0.413 0.412 0.413c0.228 0 0.413-0.185 0.413-0.413s-0.185-0.412-0.413-0.412z"></path>
<path d="M9.213 17.741c-0.228 0-0.413 0.185-0.413 0.412s0.185 0.413 0.413 0.413c0.228 0 0.412-0.185 0.412-0.413s-0.185-0.412-0.412-0.412z"></path>
<path d="M7.769 16.503c-0.228 0-0.412 0.184-0.412 0.412s0.184 0.413 0.412 0.413c0.228 0 0.412-0.185 0.412-0.413s-0.185-0.412-0.412-0.412z"></path>
<path d="M10.038 16.4c0 0.228 0.185 0.412 0.412 0.412s0.413-0.184 0.413-0.412c0-0.228-0.185-0.412-0.413-0.412s-0.412 0.184-0.412 0.412z"></path>
<path d="M11.998 18.669c0.228 0 0.413-0.185 0.413-0.413s-0.184-0.412-0.413-0.412c-0.228 0-0.413 0.185-0.413 0.412s0.185 0.413 0.413 0.413z"></path>
<path d="M13.339 17.324c0.228 0 0.412-0.185 0.412-0.413s-0.184-0.413-0.412-0.413c-0.228 0-0.413 0.185-0.413 0.413s0.185 0.413 0.413 0.413z"></path>
<path d="M15.402 18.669c0.228 0 0.413-0.185 0.413-0.413s-0.185-0.412-0.413-0.412c-0.227 0-0.413 0.185-0.413 0.412s0.185 0.413 0.413 0.413z"></path>
<path d="M18.849 22.825c0.044-0.013 0.095-0.021 0.164-0.021 0.284 0 0.515-0.23 0.515-0.515s-0.231-0.516-0.515-0.516c-0.182 0-0.354 0.028-0.51 0.079-0.136 0.045-0.259 0.108-0.365 0.179-0.186 0.124-0.325 0.268-0.44 0.398-0.086 0.098-0.16 0.189-0.228 0.266-0.101 0.116-0.187 0.197-0.264 0.243-0.039 0.023-0.076 0.040-0.12 0.052s-0.095 0.021-0.163 0.021c-0.080 0-0.136-0.011-0.184-0.027-0.042-0.014-0.080-0.033-0.12-0.059-0.070-0.045-0.147-0.12-0.237-0.222-0.067-0.076-0.14-0.166-0.225-0.264-0.128-0.145-0.284-0.31-0.506-0.444-0.11-0.067-0.236-0.124-0.374-0.163s-0.287-0.059-0.443-0.059c-0.182 0-0.354 0.027-0.509 0.079-0.136 0.045-0.259 0.108-0.365 0.179-0.187 0.124-0.325 0.268-0.44 0.398-0.087 0.098-0.16 0.189-0.228 0.266-0.101 0.116-0.186 0.197-0.264 0.243-0.039 0.023-0.076 0.040-0.12 0.052s-0.095 0.021-0.164 0.021c-0.080 0-0.136-0.011-0.184-0.027-0.043-0.014-0.080-0.033-0.12-0.059-0.069-0.045-0.147-0.12-0.236-0.222-0.067-0.076-0.14-0.166-0.225-0.263-0.128-0.145-0.285-0.311-0.505-0.445-0.11-0.067-0.236-0.124-0.374-0.163s-0.287-0.060-0.443-0.059c-0.182-0-0.354 0.027-0.509 0.079-0.136 0.045-0.259 0.108-0.365 0.179-0.186 0.124-0.325 0.268-0.44 0.398-0.086 0.098-0.159 0.189-0.227 0.266-0.101 0.116-0.187 0.197-0.264 0.243-0.039 0.023-0.076 0.040-0.119 0.052s-0.095 0.021-0.164 0.021c-0.080 0-0.136-0.011-0.184-0.027-0.042-0.014-0.080-0.033-0.119-0.059-0.070-0.045-0.147-0.12-0.237-0.221-0.067-0.076-0.14-0.166-0.225-0.263-0.128-0.145-0.285-0.311-0.506-0.445-0.11-0.067-0.236-0.124-0.373-0.163s-0.287-0.060-0.444-0.059c-0.182-0-0.353 0.027-0.51 0.079-0.136 0.045-0.258 0.108-0.365 0.179-0.187 0.125-0.325 0.268-0.44 0.399-0.086 0.098-0.16 0.189-0.227 0.266-0.101 0.116-0.187 0.197-0.264 0.243-0.039 0.023-0.076 0.040-0.12 0.052s-0.095 0.020-0.163 0.021c-0.080-0-0.136-0.011-0.185-0.027-0.042-0.014-0.080-0.033-0.119-0.059-0.069-0.045-0.147-0.119-0.236-0.221-0.067-0.076-0.141-0.166-0.226-0.264-0.128-0.145-0.285-0.31-0.506-0.445-0.11-0.067-0.236-0.124-0.374-0.163s-0.287-0.060-0.444-0.059c-0.284 0-0.515 0.231-0.515 0.516s0.231 0.515 0.515 0.515c0.080 0 0.137 0.011 0.184 0.027 0.042 0.015 0.080 0.033 0.12 0.060 0.069 0.045 0.147 0.119 0.236 0.221 0.067 0.076 0.14 0.166 0.225 0.264 0.128 0.145 0.285 0.31 0.506 0.445 0.11 0.067 0.236 0.123 0.374 0.162s0.287 0.059 0.444 0.059c0.181 0 0.353-0.027 0.509-0.079 0.136-0.046 0.259-0.108 0.365-0.179 0.187-0.124 0.325-0.269 0.44-0.399 0.086-0.098 0.16-0.189 0.227-0.266 0.101-0.116 0.187-0.196 0.264-0.242 0.039-0.023 0.076-0.040 0.12-0.052s0.095-0.021 0.164-0.021c0.080 0 0.136 0.011 0.184 0.027 0.042 0.015 0.080 0.033 0.12 0.060 0.070 0.045 0.147 0.119 0.237 0.221 0.067 0.076 0.14 0.166 0.225 0.264 0.128 0.145 0.285 0.31 0.506 0.445 0.11 0.067 0.236 0.123 0.373 0.162s0.287 0.059 0.444 0.059c0.181 0 0.354-0.027 0.509-0.079 0.137-0.046 0.259-0.108 0.365-0.179 0.187-0.124 0.325-0.269 0.44-0.399 0.087-0.098 0.16-0.189 0.228-0.266 0.101-0.116 0.187-0.196 0.264-0.242 0.039-0.023 0.076-0.040 0.12-0.052s0.095-0.021 0.164-0.021c0.080 0 0.136 0.011 0.184 0.027 0.043 0.015 0.080 0.033 0.12 0.060 0.069 0.045 0.147 0.119 0.236 0.221 0.067 0.076 0.14 0.166 0.225 0.264 0.128 0.145 0.285 0.31 0.506 0.445 0.11 0.067 0.236 0.123 0.374 0.162s0.287 0.059 0.444 0.059c0.181 0 0.353-0.027 0.509-0.079 0.136-0.046 0.259-0.108 0.365-0.179 0.187-0.124 0.325-0.269 0.44-0.399 0.086-0.098 0.16-0.189 0.227-0.266 0.101-0.116 0.187-0.196 0.264-0.242 0.039-0.023 0.076-0.040 0.119-0.052s0.095-0.021 0.164-0.021c0.080 0 0.136 0.011 0.184 0.027 0.042 0.015 0.080 0.033 0.119 0.060 0.070 0.045 0.147 0.119 0.237 0.221 0.067 0.076 0.14 0.167 0.226 0.264 0.128 0.145 0.285 0.31 0.505 0.445 0.11 0.067 0.236 0.123 0.374 0.162s0.288 0.060 0.444 0.060c0.181 0 0.354-0.028 0.509-0.079 0.136-0.045 0.259-0.108 0.365-0.179 0.187-0.124 0.325-0.269 0.44-0.399 0.086-0.098 0.16-0.189 0.227-0.266 0.101-0.116 0.187-0.196 0.264-0.242 0.039-0.022 0.076-0.039 0.12-0.051z"></path>
<path d="M30.463 7.518h-4.603l0.966-4.442 3.382-1.964-0.646-1.113-3.873 2.249-1.146 5.27h-10.331l0.539 7.025c-1.222-0.463-2.601-0.732-4.062-0.732-2.275 0.001-4.351 0.647-5.943 1.677-0.796 0.515-1.473 1.128-1.989 1.813-0.399 0.531-0.701 1.107-0.88 1.713h-0.036l-0.090 0.537c-0.003 0.017-0.005 0.026-0.006 0.032l-0 0.003c-0.002 0.006-0.007 0.020-0.015 0.044s-0.016 0.057-0.022 0.089c-0.009 0.048-0.013 0.091-0.015 0.129s-0.003 0.075-0.003 0.118c0 0.206 0.029 0.409 0.097 0.603 0.051 0.145 0.126 0.284 0.224 0.407 0.146 0.185 0.345 0.327 0.557 0.412 0.213 0.085 0.436 0.119 0.661 0.119h14.919c0.2 0 0.398-0.027 0.59-0.093 0.143-0.050 0.282-0.122 0.405-0.218 0.186-0.144 0.332-0.341 0.419-0.555 0.089-0.215 0.125-0.444 0.125-0.676-0-0.060-0.001-0.108-0.006-0.167-0.004-0.044-0.014-0.099-0.026-0.145-0.009-0.035-0.018-0.058-0.021-0.067l-0.001-0.002c-0.001-0.003-0.003-0.012-0.007-0.034v0c-0.134-0.804-0.491-1.566-1.006-2.251-0.63-0.836-1.497-1.564-2.531-2.139l-0.488-6.357h13.47l-1.474 19.19h-8.28c-0.147-0.163-0.334-0.302-0.549-0.393-0.222-0.095-0.468-0.139-0.721-0.139h-14.716c-0.3-0.001-0.59 0.062-0.841 0.196-0.188 0.099-0.351 0.236-0.478 0.391-0.192 0.233-0.309 0.5-0.38 0.771s-0.097 0.551-0.097 0.833v0.154c-0 0.603 0.246 1.155 0.642 1.549 0.394 0.395 0.946 0.642 1.549 0.642h13.925c0.603 0 1.154-0.246 1.549-0.642 0.395-0.395 0.642-0.946 0.642-1.549v-0.154c0-0.125-0.005-0.249-0.017-0.372h8.966l1.672-21.764zM15.934 16.569c0.684 0.443 1.248 0.96 1.659 1.507s0.67 1.122 0.765 1.689v0c0.011 0.066 0.023 0.123 0.037 0.172 0.002 0.005 0.004 0.010 0.005 0.016 0 0.005 0 0.008 0 0.013 0 0.088-0.013 0.144-0.023 0.173-0.008 0.023-0.014 0.031-0.017 0.035-0.005 0.006-0.004 0.008-0.032 0.020-0.027 0.011-0.085 0.026-0.179 0.026h-14.919c-0.084 0-0.139-0.012-0.169-0.023-0.023-0.008-0.032-0.014-0.036-0.017-0.005-0.006-0.008-0.004-0.020-0.031-0.009-0.022-0.022-0.069-0.026-0.14l0.041-0.246c0.095-0.567 0.353-1.141 0.765-1.689 0.617-0.821 1.578-1.573 2.771-2.111s2.611-0.866 4.133-0.866c2.029-0.001 3.875 0.583 5.244 1.47zM18.556 29.809c-0 0.251-0.1 0.473-0.265 0.639-0.166 0.165-0.388 0.265-0.639 0.265h-13.925c-0.252-0-0.473-0.1-0.639-0.265s-0.265-0.387-0.265-0.639v-0.154c0-0.176 0.016-0.335 0.044-0.462 0.022-0.095 0.049-0.173 0.079-0.231 0.022-0.043 0.044-0.075 0.065-0.099 0.033-0.036 0.060-0.056 0.104-0.076s0.11-0.036 0.217-0.036h14.716c0.128 0 0.195 0.024 0.239 0.047 0.033 0.018 0.058 0.038 0.087 0.072 0.042 0.050 0.090 0.139 0.125 0.275 0.035 0.134 0.056 0.311 0.055 0.509v0.154z"></path>
</symbol>
<symbol id="Work" viewBox="0 0 32 32">
<path d="M25.29 23.226v-1.032h5.161c0.854 0 1.548-0.695 1.548-1.548v-8.258c0-0.854-0.695-1.548-1.548-1.548h-14.451c-0.854 0-1.548 0.695-1.548 1.548v8.258c0 0.854 0.695 1.548 1.548 1.548h5.161v1.032h-8.774v-0.516c0-0.854-0.725-1.548-1.578-1.548h-1.746l-5.303-8.633c0.232-0.334 0.37-0.738 0.37-1.174 0-0.127-0.016-0.25-0.038-0.371l2.16-3.961c0.199 0.981 0.745 1.858 1.574 2.477l0.337 0.252 1.274-1.133c0.279 0.101 0.565 0.155 0.856 0.155 1.423 0 2.581-1.158 2.581-2.581 0-0.187-0.029-0.376-0.073-0.563l1.277-1.135-0.211-0.365c-0.738-1.274-2.107-2.066-3.574-2.066-0.097 0-0.193 0.008-0.288 0.014l-1.745-1.745-3.835 3.196 0.711 0.948-3.391 4.845c-0.986 0.155-1.744 1.003-1.744 2.031 0 0.774 0.433 1.442 1.065 1.795l4.268 8.011h-1.751c-0.854 0-1.518 0.695-1.518 1.548v0.516h-2.064v3.097h1.548v5.677h1.032v-5.677h1.032v5.677h1.032v-5.677h22.71v5.677h1.032v-5.677h1.032v5.677h1.032v-5.677h1.548v-3.097h-6.71zM15.484 12.387c0-0.284 0.232-0.516 0.516-0.516h14.451c0.284 0 0.516 0.232 0.516 0.516v6.71h-15.484v-6.71zM21.161 21.161h-5.161c-0.284 0-0.516-0.232-0.516-0.516v-0.516h15.484v0.516c0 0.284-0.232 0.516-0.516 0.516h-9.29zM24.258 22.194v1.032h-2.065v-1.032h2.065zM10.431 7.736l1.377-1.224c-0.138 0.658-0.694 1.163-1.377 1.224zM10.293 3.097c0.96-0 1.865 0.453 2.447 1.205l-4.613 4.101c-0.596-0.58-0.931-1.366-0.931-2.209 0-1.708 1.389-3.097 3.097-3.097zM8.196 1.731l0.614 0.614c-1.038 0.401-1.877 1.208-2.314 2.228l-0.657-0.877 2.358-1.965zM5.786 5.347l0.118 0.157-2.391 4.383c-0.177-0.175-0.385-0.315-0.614-0.417l2.887-4.124zM1.032 11.355c0-0.569 0.463-1.032 1.032-1.032s1.032 0.463 1.032 1.032c0 0.569-0.463 1.032-1.032 1.032s-1.032-0.463-1.032-1.032zM2.362 13.389c0.213-0.031 0.414-0.093 0.601-0.185l4.888 7.957h-1.348l-4.141-7.772zM3.583 22.194h7.226c0.284 0 0.546 0.232 0.546 0.516v0.516h-8.258v-0.516h-0c0-0.284 0.202-0.516 0.486-0.516zM30.968 25.29h-29.935v-1.032h29.935v1.032z"></path>
<path d="M14.968 8.774h16.516v1.032h-16.516v-1.032z"></path>
<path d="M22.193 0h-4.129v8.258h4.129v-8.258zM21.161 7.226h-2.065v-2.065h2.065v2.065zM21.161 4.129h-2.065v-3.097h2.065v3.097z"></path>
<path d="M20.645 6.194c0 0.285-0.231 0.516-0.516 0.516s-0.516-0.231-0.516-0.516c0-0.285 0.231-0.516 0.516-0.516s0.516 0.231 0.516 0.516z"></path>
<path d="M26.839 0h-4.129v8.258h4.129v-8.258zM23.742 1.032h2.065v3.097h-2.065v-3.097zM25.806 7.226h-2.065v-2.065h2.065v2.065z"></path>
<path d="M25.29 6.194c0 0.285-0.231 0.516-0.516 0.516s-0.516-0.231-0.516-0.516c0-0.285 0.231-0.516 0.516-0.516s0.516 0.231 0.516 0.516z"></path>
<path d="M31.484 0h-4.129v8.258h4.129v-8.258zM28.387 1.032h2.065v3.097h-2.065v-3.097zM30.451 7.226h-2.065v-2.065h2.065v2.065z"></path>
<path d="M29.935 6.194c0 0.285-0.231 0.516-0.516 0.516s-0.516-0.231-0.516-0.516c0-0.285 0.231-0.516 0.516-0.516s0.516 0.231 0.516 0.516z"></path>
</symbol>
<symbol id="Hobbies" viewBox="0 0 32 32">
<path d="M24.639 0h-17.134c-1.263 0-2.361 1.025-2.361 2.285v27.429c0 1.26 1.099 2.285 2.361 2.285h17.134c1.263 0 2.219-1.025 2.219-2.285v-27.429c0-1.26-0.956-2.285-2.218-2.285zM25.714 29.715c0 0.63-0.443 1.143-1.076 1.143h-17.134c-0.633 0-1.219-0.513-1.219-1.143v-27.429c0-0.63 0.586-1.143 1.219-1.143h17.134c0.633 0 1.076 0.513 1.076 1.143v27.429z"></path>
<path d="M20.631 11.185c0.008-0.109 0.012-0.219 0.012-0.328 0-2.521-2.051-4.571-4.571-4.571s-4.571 2.051-4.571 4.571c0 0.109 0.004 0.219 0.012 0.328-1.711 0.688-2.869 2.367-2.869 4.244 0 2.521 2.051 4.571 4.571 4.571 1.053 0 2.049-0.352 2.857-1.002 0.808 0.649 1.804 1.002 2.857 1.002 2.521-0 4.572-2.051 4.572-4.572 0-1.876-1.158-3.556-2.869-4.244zM18.929 18.857c-0.929 0-1.799-0.365-2.449-1.029-0.108-0.11-0.255-0.172-0.408-0.172s-0.301 0.062-0.408 0.172c-0.65 0.664-1.52 1.029-2.449 1.029-1.891 0-3.429-1.538-3.429-3.429 0-1.533 1.030-2.891 2.504-3.303 0.284-0.079 0.461-0.362 0.409-0.652-0.037-0.202-0.055-0.409-0.055-0.617 0-1.891 1.538-3.429 3.429-3.429s3.429 1.538 3.429 3.429c0 0.207-0.019 0.415-0.055 0.617-0.053 0.29 0.124 0.573 0.409 0.652 1.474 0.412 2.504 1.77 2.504 3.303-0 1.891-1.538 3.429-3.429 3.429z"></path>
<path d="M18.803 23.643l-2.286-2.857c-0.108-0.136-0.273-0.214-0.446-0.214s-0.338 0.079-0.446 0.214l-2.286 2.857c-0.137 0.172-0.164 0.407-0.069 0.605s0.295 0.324 0.515 0.324h4.571c0.22 0 0.42-0.126 0.515-0.324s0.068-0.433-0.069-0.605zM14.975 23.429l1.097-1.371 1.097 1.371h-2.194z"></path>
</symbol>
<symbol id="Travel" viewBox="0 0 32 32">
<path d="M17.882 5.556c-6.264 0-11.339 5.076-11.34 11.34s5.076 11.34 11.34 11.34c6.264-0 11.34-5.076 11.34-11.34s-5.076-11.339-11.34-11.34zM11.214 10.229c0.637-0.636 1.364-1.182 2.16-1.616-0.421 0.645-0.788 1.371-1.095 2.165h-1.565c0.161-0.188 0.325-0.375 0.5-0.55zM9.609 12.371h2.17c-0.3 1.155-0.476 2.412-0.531 3.728h-2.754c0.113-1.343 0.5-2.605 1.115-3.728zM9.61 21.421c-0.616-1.123-1.004-2.386-1.117-3.729h2.743c0.055 1.319 0.241 2.573 0.541 3.729h-2.168zM11.214 23.563c-0.175-0.175-0.339-0.361-0.499-0.549h1.565c0.222 0.576 0.474 1.118 0.756 1.617 0.109 0.192 0.226 0.372 0.344 0.551-0.798-0.434-1.527-0.98-2.165-1.619zM17.085 26.285c-0.079-0.006-0.159-0.010-0.238-0.019-0.26-0.107-0.518-0.247-0.775-0.439-0.771-0.573-1.503-1.547-2.069-2.813h3.082v3.271zM17.085 21.421h-3.653c-0.329-1.125-0.532-2.386-0.593-3.729h4.245v3.729zM17.085 16.099h-4.257c0.060-1.342 0.271-2.603 0.599-3.728h3.658v3.728zM17.085 10.779h-3.078c0.131-0.292 0.268-0.573 0.415-0.834 0.488-0.865 1.059-1.539 1.65-1.98 0.257-0.191 0.515-0.331 0.774-0.438 0.079-0.009 0.159-0.013 0.238-0.019v3.271zM26.155 12.371c0.615 1.122 1.003 2.385 1.115 3.728h-2.743c-0.055-1.319-0.241-2.572-0.541-3.728h2.169zM24.549 10.229c0.175 0.175 0.339 0.361 0.5 0.55h-1.566c-0.222-0.576-0.474-1.118-0.756-1.618-0.109-0.191-0.226-0.371-0.342-0.551 0.797 0.435 1.526 0.981 2.165 1.619zM18.678 7.508c0.079 0.007 0.159 0.011 0.238 0.019 0.259 0.107 0.517 0.247 0.774 0.438 0.771 0.572 1.503 1.548 2.070 2.813h-3.082v-3.271zM18.678 12.371h3.653c0.328 1.125 0.532 2.386 0.592 3.728h-4.245v-3.728zM21.341 23.847c-0.488 0.865-1.059 1.539-1.65 1.98-0.257 0.192-0.515 0.332-0.775 0.439-0.079 0.009-0.159 0.013-0.238 0.019v-3.271h3.078c-0.131 0.292-0.267 0.574-0.415 0.833zM18.678 21.421v-3.729h4.257c-0.060 1.342-0.271 2.604-0.599 3.729h-3.658zM24.549 23.563c-0.637 0.637-1.364 1.182-2.16 1.616 0.421-0.644 0.788-1.37 1.094-2.165h1.565c-0.16 0.188-0.324 0.374-0.499 0.549zM26.154 21.421h-2.169c0.3-1.154 0.476-2.411 0.531-3.729h2.754c-0.113 1.343-0.5 2.606-1.116 3.729z"></path>
<path d="M25.103 28.688c-2.256 1.381-4.745 2.038-7.208 2.038-4.655-0-9.197-2.348-11.805-6.608-1.381-2.256-2.038-4.746-2.038-7.208 0.001-4.655 2.348-9.196 6.608-11.805l-0.665-1.086c-4.651 2.849-7.218 7.812-7.217 12.892-0.001 2.689 0.719 5.414 2.226 7.873 2.848 4.65 7.812 7.217 12.892 7.217 2.689 0 5.414-0.719 7.874-2.226l-0.666-1.087z"></path>
<path d="M15.287 4.364h5.962c0.614 0 1.112-0.207 1.112-0.822 0-0.614-1.175-1.208-1.789-1.208h-1.232l-2.506-2.256c-0.126-0.139-0.623-0.048-0.774-0.047-0.186 0.001-0.146 0.299-0.074 0.472l0.732 1.832h-1.754l-0.962-1.528c-0.169-0.184-0.433-0.246-0.666-0.156s-0.387 0.315-0.387 0.564l-0.016 1.12v0.331c-0 0.939 1.128 1.7 2.353 1.7z"></path>
</symbol>
<symbol id="React" viewBox="0 0 32 32">
<path d="M14.313 22.211c0.55 0.025 1.112 0.043 1.681 0.043 0.575 0 1.143-0.012 1.7-0.043-0.557 0.72-1.107 1.357-1.689 1.964l0.008-0.008c-0.579-0.6-1.135-1.238-1.659-1.902l-0.041-0.054zM8.615 21.411c1.083 0.275 2.404 0.509 3.752 0.653l0.131 0.011c0.825 1.133 1.659 2.13 2.554 3.068l-0.011-0.012c-1.311 1.463-3.080 2.491-5.081 2.86l-0.055 0.008c-0.004 0-0.008 0-0.012 0-0.248 0-0.482-0.061-0.687-0.169l0.008 0.004c-0.832-0.475-1.193-2.292-0.912-4.627 0.067-0.575 0.177-1.18 0.312-1.797zM23.398 21.398c0.118 0.474 0.229 1.078 0.308 1.692l0.009 0.086c0.287 2.334-0.067 4.149-0.892 4.634-0.184 0.102-0.404 0.162-0.638 0.162-0.023 0-0.046-0.001-0.069-0.002h0.003c-2.053-0.375-3.821-1.396-5.129-2.841l-0.007-0.008c0.879-0.923 1.707-1.918 2.466-2.965l0.058-0.084c1.476-0.154 2.799-0.392 4.088-0.717l-0.197 0.042zM9.784 17.666c0.25 0.49 0.512 0.978 0.8 1.468q0.431 0.731 0.881 1.428c-0.868-0.127-1.706-0.287-2.507-0.482 0.225-0.787 0.507-1.602 0.825-2.416zM22.212 17.641c0.331 0.821 0.612 1.64 0.845 2.434-0.8 0.196-1.645 0.362-2.519 0.487 0.3-0.469 0.6-0.952 0.881-1.447 0.281-0.487 0.544-0.985 0.795-1.475zM7.619 12.292c0.436 1.478 0.904 2.714 1.449 3.906l-0.075-0.182c-0.466 1.005-0.927 2.234-1.305 3.499l-0.052 0.205c-0.706-0.217-1.274-0.43-1.827-0.669l0.115 0.044c-2.164-0.921-3.564-2.132-3.564-3.092s1.4-2.177 3.564-3.094c0.525-0.225 1.1-0.428 1.694-0.617zM24.358 12.287c0.605 0.187 1.18 0.396 1.718 0.622 2.164 0.925 3.564 2.134 3.564 3.094-0.006 0.96-1.406 2.174-3.57 3.093-0.525 0.225-1.1 0.427-1.693 0.616-0.44-1.483-0.908-2.718-1.451-3.912l0.076 0.188c0.464-1.004 0.926-2.233 1.303-3.498l0.053-0.206zM20.53 11.444c0.869 0.129 1.706 0.287 2.507 0.484-0.225 0.79-0.506 1.602-0.825 2.416-0.25-0.487-0.512-0.978-0.8-1.467-0.281-0.49-0.581-0.967-0.881-1.432zM11.458 11.444c-0.3 0.471-0.6 0.953-0.88 1.45-0.281 0.487-0.544 0.977-0.794 1.467-0.331-0.82-0.612-1.637-0.845-2.433 0.8-0.187 1.643-0.354 2.518-0.482zM16 11.126c0.925 0 1.846 0.042 2.752 0.116q0.761 1.091 1.478 2.324 0.697 1.2 1.272 2.432c-0.385 0.819-0.807 1.637-1.266 2.437-0.475 0.825-0.966 1.61-1.475 2.337-0.91 0.079-1.832 0.122-2.762 0.122-0.925 0-1.846-0.044-2.752-0.116-0.507-0.727-1.002-1.505-1.478-2.324q-0.697-1.2-1.272-2.432c0.379-0.821 0.807-1.641 1.266-2.442 0.475-0.825 0.966-1.607 1.475-2.334 0.91-0.080 1.832-0.122 2.762-0.122zM15.981 7.845c0.58 0.6 1.136 1.237 1.659 1.901l0.040 0.053c-0.55-0.025-1.112-0.042-1.681-0.042-0.575 0-1.143 0.012-1.7 0.042 0.556-0.72 1.106-1.357 1.689-1.964l-0.008 0.008zM9.88 4.033c2.053 0.376 3.82 1.397 5.129 2.841l0.007 0.008c-0.879 0.924-1.707 1.919-2.466 2.968l-0.058 0.084c-1.475 0.153-2.798 0.389-4.086 0.714l0.196-0.042c-0.14-0.612-0.244-1.205-0.317-1.774-0.287-2.334 0.067-4.149 0.892-4.632 0.206-0.097 0.447-0.157 0.701-0.165h0.003zM22.090 4.008v0.008c0.013 0 0.028-0.001 0.044-0.001 0.239 0 0.464 0.059 0.662 0.163l-0.008-0.004c0.832 0.477 1.193 2.293 0.912 4.629-0.067 0.575-0.177 1.181-0.312 1.799-1.085-0.278-2.406-0.513-3.754-0.656l-0.128-0.011c-0.826-1.134-1.66-2.131-2.555-3.070l0.012 0.012c1.311-1.46 3.077-2.488 5.074-2.859l0.056-0.009zM22.096 2.646c-2.442 0.371-4.556 1.557-6.1 3.268l-0.008 0.009c-1.555-1.71-3.669-2.888-6.051-3.245l-0.056-0.007c-0.013 0-0.029 0-0.045 0-0.491 0-0.952 0.129-1.351 0.355l0.014-0.007c-1.718 0.991-2.103 4.079-1.216 7.954-3.804 1.175-6.278 3.053-6.278 5.032 0 1.987 2.487 3.87 6.302 5.036-0.88 3.89-0.487 6.983 1.235 7.973 0.378 0.217 0.832 0.344 1.315 0.344 0.022 0 0.044 0 0.065-0.001h-0.003c2.442-0.371 4.556-1.558 6.1-3.27l0.008-0.009c1.555 1.711 3.669 2.889 6.051 3.246l0.056 0.007c0.015 0 0.034 0 0.052 0 0.488 0 0.947-0.128 1.344-0.351l-0.014 0.007c1.717-0.99 2.103-4.078 1.216-7.954 3.79-1.165 6.264-3.047 6.264-5.029 0-1.987-2.487-3.87-6.302-5.039 0.88-3.886 0.487-6.982-1.235-7.973-0.382-0.219-0.84-0.348-1.328-0.348-0.013 0-0.026 0-0.039 0h0.002zM18.787 16.005c0 1.543-1.251 2.794-2.794 2.794s-2.794-1.251-2.794-2.794c0-1.543 1.251-2.794 2.794-2.794 0.772 0 1.47 0.313 1.976 0.818v0c0.506 0.506 0.818 1.204 0.818 1.976 0 0 0 0 0 0v0z"></path>
</symbol>
<symbol id="JavaScript" viewBox="0 0 32 32">
<path d="M31 31.36h-30v-0.72h30v0.72zM31 24.36h-30c-0.199 0-0.36-0.161-0.36-0.36v-23c0-0.199 0.161-0.36 0.36-0.36h30c0.199 0 0.36 0.161 0.36 0.36v23c0 0.199-0.161 0.36-0.36 0.36zM1.36 23.64h29.28v-22.28h-29.28v22.28zM9.051 15.354v-0.182c0-0.476 0.266-0.812 0.854-0.812s0.854 0.336 0.854 0.812v0.182c0 0.477-0.266 0.812-0.854 0.812s-0.854-0.336-0.854-0.812zM12.998 8.77h1.121v8.349c0 0.994-0.49 1.68-1.569 1.68h-0.728v-0.98h1.176v-9.049zM12.872 6.445v-0.182c0-0.378 0.21-0.63 0.687-0.63s0.687 0.252 0.687 0.63v0.182c0 0.378-0.21 0.63-0.687 0.63s-0.687-0.252-0.687-0.63zM15.812 14.751l0.798-0.645c0.561 0.701 1.232 1.106 2.144 1.106 0.952 0 1.513-0.434 1.513-1.176 0-0.561-0.309-0.995-1.261-1.135l-0.574-0.084c-1.331-0.196-2.326-0.743-2.326-2.087 0-1.429 1.107-2.129 2.578-2.129 1.163 0 1.934 0.434 2.521 1.163l-0.742 0.672c-0.322-0.448-0.938-0.882-1.863-0.882s-1.415 0.434-1.415 1.121c0 0.7 0.49 0.98 1.387 1.121l0.561 0.084c1.597 0.238 2.213 0.938 2.213 2.031 0 1.4-1.022 2.255-2.675 2.255-1.332 0-2.215-0.56-2.859-1.415z"></path>
</symbol>
</defs>
</svg>
